<svg width="18" height="18" fill="none" xmlns="http://www.w3.org/2000/svg"><path fill-rule="evenodd" clip-rule="evenodd" d="M5.339.495C1.679.86.803 2.13.793 7.082L.79 8.787l1.613-.102c2.424-.153 3.89-.507 4.715-1.136C8.414 6.561 9.06 4.54 9.06 1.478V.332L7.78.356c-.706.013-1.803.076-2.44.14zm4.052.85c0 4.017.972 6.122 3.161 6.85.63.209 3.585.558 4.82.57.257.002.29-.186.286-1.693-.004-2.287-.247-3.82-.754-4.75C16.178.987 15.046.577 11.596.398L9.391.283v1.063zM.793 10.629c.005 2.287.248 3.82.754 4.75.727 1.335 1.858 1.745 5.308 1.924l2.205.115v-1.17c0-3.916-.985-6.019-3.16-6.741-.63-.21-3.586-.559-4.82-.57-.258-.003-.29.186-.287 1.692zm14.222-1.531c-2.768.227-4.084.911-4.86 2.527-.457.95-.764 2.807-.764 4.623v1.17l2.205-.115c3.297-.17 4.367-.53 5.196-1.748.577-.849.716-1.557.82-4.181l.098-2.44-.645.024a64.3 64.3 0 00-2.05.14z" fill="#FFF06A"/></svg>