<svg width="18" height="13" fill="none" xmlns="http://www.w3.org/2000/svg"><path d="M17.391 2.64c-.1-.352-.29-.673-.552-.93a2.165 2.165 0 00-.945-.544C14.552.812 9.154.812 9.154.812s-5.385-.007-6.74.354a2.165 2.165 0 00-.946.543 2.114 2.114 0 00-.552.93 21.7 21.7 0 00-.374 4.096 21.7 21.7 0 00.374 4.081c.1.352.29.672.552.93.263.258.588.445.946.543 1.34.355 6.74.355 6.74.355s5.384 0 6.74-.355c.357-.098.683-.285.945-.543.262-.258.453-.578.552-.93.248-1.346.368-2.712.359-4.08a21.74 21.74 0 00-.359-4.097zm-9.96 6.63V4.193l4.493 2.541L7.431 9.27z" fill="#FFF06A"/></svg>