<svg width="17" height="10" fill="none" xmlns="http://www.w3.org/2000/svg"><path d="M8.288 9.952h1.018s.306-.034.463-.207c.149-.162.149-.461.149-.461s-.022-1.41.615-1.617c.628-.205 1.425 1.36 2.275 1.963.648.46 1.136.361 1.136.361l2.275-.032s1.191-.077.628-1.043c-.043-.077-.32-.713-1.68-2.019-1.424-1.361-1.233-1.142.48-3.502 1.04-1.437 1.466-2.315 1.328-2.688-.118-.352-.893-.264-.893-.264l-2.551.022s-.192-.022-.33.066c-.138.087-.222.286-.222.286s-.405 1.118-.946 2.063c-1.15 1.996-1.607 2.106-1.787 1.974-.428-.286-.319-1.156-.319-1.779 0-1.932.287-2.743-.553-2.951-.276-.067-.482-.11-1.193-.122-.914-.01-1.685.008-2.122.228-.287.148-.51.477-.382.493.17.022.552.107.754.393.266.37.254 1.197.254 1.197s.15 2.28-.35 2.562c-.35.192-.818-.205-1.838-2.016-.52-.921-.914-1.953-.914-1.953A.82.82 0 003.37.61C3.21.49 2.976.446 2.976.446L.543.467S.183.478.055.642c-.117.143-.011.45-.011.45s1.903 4.599 4.06 6.915c1.976 2.122 4.22 1.986 4.22 1.986l-.036-.04z" fill="#FFF06A"/></svg>