<svg width="23" height="23" fill="none" xmlns="http://www.w3.org/2000/svg"><circle cx="11.5" cy="11.5" r="11.5" fill="#612B1C"/><path d="M1.002 19.794a509.19 509.19 0 002.984-2.95c1.326-1.349 2.115-2.435 2.367-3.258.137-.435.286-1.292.446-2.573C7.142 8.338 7.976 7 9.303 7c1.349 0 2.023.697 2.023 2.092 0 1.624-1.143 3.648-3.43 6.072-3.201 3.407-5.294 5.11-6.277 5.11-.434 0-.64-.16-.617-.48zm7.923 0c.686-.64 1.681-1.6 2.985-2.88 1.28-1.282 2.07-2.39 2.366-3.328.16-.526.32-1.395.48-2.607C15.1 8.326 15.924 7 17.227 7c1.418 0 2.127.697 2.127 2.092 0 1.601-1.155 3.625-3.465 6.072-3.2 3.407-5.282 5.11-6.242 5.11-.458 0-.698-.16-.72-.48z" fill="#FFF06A"/></svg>