<svg width="62" height="57" fill="none" xmlns="http://www.w3.org/2000/svg"><g clip-path="url(#clip0_1_608)"><path d="M52.563 43.843c-.175.568-.548 1.009-.874 1.496-.245.36-.548.8-.478 1.252.011.081.14.116.198.046.315-.394.49-.939.78-1.368.28-.429.56-.846.7-1.344.046-.197-.268-.279-.327-.081zM34.642 53.43c-.268.499-.513 1.009-.525 1.589.012.232.373.266.385 0v-.035c.012-.012.012-.012.012-.023a.105.105 0 000-.116v-.012c.046-.44.198-.834.396-1.252.093-.174-.175-.324-.268-.15zm-1.177-.185c-.07.185-1.177 1.96-.49 1.901.129-.011.164-.093.175-.185.024-.163.035-.302.105-.476.152-.394.373-.765.513-1.17.058-.186-.233-.255-.303-.07zM52.13 43.31c.14-.15-.081-.382-.233-.232a5.69 5.69 0 00-.955 1.287c-.198.348-.548.87-.431 1.287.023.081.128.104.186.046.303-.266.396-.788.583-1.147.233-.44.512-.87.85-1.24zM30.657 53.546a6.52 6.52 0 00-.501 1.38c0 .011-.012.023-.012.046-.046.255.326.371.396.105.117-.464.222-.916.42-1.357.105-.208-.198-.382-.303-.174zm-3.24.36c-.186.336-.745 1.008-.314 1.333.081.07.233-.023.221-.128-.046-.382.198-.73.35-1.055.093-.173-.152-.324-.256-.15zm-10.812-8.683c-.315.591-.595 1.206-.898 1.808-.256.522-.57 1.044-.722 1.589-.023.092.105.185.175.104.384-.429.606-1.009.839-1.53.28-.615.547-1.23.827-1.844.07-.15-.14-.278-.221-.127zm8.867 8.764c-.292.29-.7.87-.525 1.31.035.081.117.15.21.116.117-.035.28-.209.152-.336-.012-.012-.024-.024-.035-.024.011-.313.198-.637.407-.87.117-.127-.081-.324-.21-.196zm6.723-.66c-.256.59-.524 1.17-.77 1.761-.07.163.117.278.257.255.163-.023.245-.139.28-.29a.128.128 0 00-.035-.115c.186-.499.361-.998.547-1.496.059-.162-.21-.278-.28-.116zm-2.692.567c-.116.22-.28.418-.373.65-.07.173-.163.533.117.59.233.047.163-.255.198-.382.058-.255.245-.464.361-.684.082-.197-.198-.36-.303-.174zm-1.13-.035c-.291.29-.431.754-.431 1.16 0 .174.28.278.361.092.047-.092.047-.092.058-.208 0-.023-.011-.035-.011-.058.023-.267.081-.557.256-.754.128-.15-.093-.382-.233-.232zm-3.938.499a2.18 2.18 0 00-.431.649c-.082.174-.21.464-.082.638.058.08.221.092.245-.035.07-.394.163-.765.43-1.078.117-.116-.046-.29-.162-.174zm36.808-7.106c-1.212.533-2.528.73-3.833.927-.28-1.09-.84-2.145-1.457-3.049-.513-.753-1.06-1.495-1.748-2.11a4.625 4.625 0 00-1.106-.742c.396-.208.734-.498.978-.904.548-.916.187-2.005-.699-2.562-1.177-.718-2.691-.533-3.996-.486-.175.011-.338.011-.513.011.116-1.066.256-2.446 1.351-2.666.513-.105 1.06-.081 1.573-.15a5.601 5.601 0 001.608-.488c1.9-.904 3.065-2.84 3.95-4.66a39.614 39.614 0 002.762-7.72c.746-2.98 1.491-5.947 1.678-9.031.105-1.774.128-3.49 0-5.263-.128-1.727.046-3.466-.233-5.182-.059-.348-.56-.533-.84-.336-.955.66-1.724 1.495-2.458 2.388-.78.95-1.514 1.924-2.155 2.99-1.317 2.18-2.366 4.499-3.263 6.875-.652 1.74-1.223 3.501-1.794 5.275 0-.985-.035-1.96-.035-2.945-.024-2.202-.058-4.416-.291-6.607-.35-3.409-1.06-7.454-4.428-9.205C44.628.72 42.682.511 40.806.372 38.685.222 36.564.21 34.432.21 30.062.198 25.693.036 21.324.012A509.954 509.954 0 0010.312.07c-.652.012-1.34 0-2.004.058-1.899-.336-3.787.406-5.36 1.67C1.224 3.178-.605 5.693.198 8l-.046.046c-.186.197-.047.499.221.522.42.034.851.104 1.27.104.56 0 1.119-.104 1.678-.162 1.189-.15 2.366-.267 3.566-.267 1.153 0 2.319.035 3.495.162.478.047.968.058 1.445.128v.035c.024.104.163.104.21.023 0-.012.012-.012.012-.023.314.058 1.002.15 1.211.382l.059.058c.023.116.046.232.058.348.49 2.99.501 6.086.466 9.1-.058 6.515-.746 12.972-1.107 19.475-.163 2.98-.221 6.052.152 9.02.314 2.584 1.025 5.448 2.936 7.36.081.082.163.163.256.232.723 1.055 1.958 1.728 3.146 2.11 1.597.522 3.333.325 4.976.162 3.728-.37 7.492-.336 11.232-.29 2.389.035 4.789.07 7.178.082 1.212.313 2.493.36 3.752.301 1.421-.07 2.854-.15 4.253-.475.454-.023.908-.058 1.363-.081 1.596-.105 3.356 0 4.894-.533 1.584-.545 2.97-1.693 3.891-3.06 1.014-1.508 1.154-3.316 1.236-5.078.011-.418-.432-.568-.758-.43zm-11.442-7.57c.862-.047 2.319-.267 3.006.405.664.638-.652 1.16-1.118 1.218-1.026.139-2.11-.081-3.135-.105-2.365-.058-4.73.21-7.096.128-.454-.012-1.992.011-1.83-.742.082-.394.269-.638.514-.811 2.097.034 4.194-.174 6.303-.082 1.119.035 2.237.035 3.356-.011zm6.455-10.144c-.839 1.75-1.946 3.768-3.915 4.429-1.084.36-2.365.093-3.332.765-1.13.788-1.247 2.295-1.364 3.593-.174 0-.338-.011-.512-.011.466-.881.675-1.82.839-2.806.093-.544.198-1.09.303-1.622.477-.244.862-.65 1.305-.963.396-.278.803-.51 1.2-.776.827-.568 1.584-1.23 2.447-1.75.862-.522 1.77-.963 2.645-1.473.233-.14.559-.267.85-.417-.14.36-.303.695-.466 1.031zm.664-1.449c-.21.093-.443.151-.629.232-.384.174-.757.394-1.13.58-.862.44-1.76.87-2.564 1.39-.815.534-1.55 1.16-2.377 1.682-.57.36-1.305.753-1.794 1.275.082-.348.151-.684.245-1.032.011-.011.023-.035.035-.046.36-.452.792-.788 1.281-1.101 1.002-.638 2.051-1.16 3.088-1.716.536-.29 1.049-.591 1.608-.835.455-.185.909-.382 1.34-.602.385-.198.758-.383 1.154-.545.011 0 .011-.012.023-.012-.082.243-.187.487-.28.73zm.455-1.136c-.222.105-.443.174-.688.255-.442.151-.85.395-1.27.568-.92.383-1.77.789-2.657 1.252-.955.499-1.91.974-2.83 1.542a6.357 6.357 0 00-1.026.765 84.59 84.59 0 01.885-3.06c.163-.116.315-.255.466-.394.408-.383.816-.73 1.27-1.055.92-.626 1.911-1.09 2.913-1.565.99-.476 2.005-.928 3.007-1.38.373-.174.745-.336 1.13-.498a49.405 49.405 0 01-1.2 3.57zm3.064-11.882c-1.573.626-3.041 1.438-4.556 2.168-.757.36-1.538.66-2.295.997a1.907 1.907 0 01-.152.07 11.5 11.5 0 01.92-.615 35.53 35.53 0 012.53-1.38c.862-.428 1.759-.765 2.656-1.124.268-.104.652-.209.932-.406l-.035.29zm-4.16-4.81c.688-1.253 1.41-2.493 2.307-3.606.63-.788 1.259-1.577 2.005-2.249.093 1.24-.012 2.48.058 3.721l.035.823c-.77.267-1.492.65-2.214 1.009-.827.417-1.631.846-2.365 1.402-.222.163-.431.337-.641.51.256-.544.524-1.078.815-1.61zm-1.211 2.48c.57-.487 1.13-.997 1.747-1.414 1.212-.835 2.599-1.38 3.88-2.099.012.244.012.476.012.72-.652.08-1.27.428-1.83.753-.663.382-1.34.753-2.003 1.136a35.14 35.14 0 00-1.923 1.159c.035-.081.07-.174.117-.255zm-1.713 4.463c.175-.522.361-1.043.547-1.565.478-.336.886-.835 1.352-1.194.63-.498 1.317-.927 2.016-1.322.547-.3 1.083-.58 1.608-.904.5-.313 1.06-.637 1.666-.684.105-.011.128-.15.023-.185-.466-.15-.99.104-1.398.301-.617.302-1.212.661-1.83.986a16.24 16.24 0 00-2.178 1.356c-.268.197-.583.417-.874.672.117-.313.245-.614.373-.927.221-.162.443-.325.676-.464.617-.382 1.223-.776 1.852-1.124 1.165-.661 2.307-1.438 3.542-1.96.012.847-.011 1.705-.07 2.563a40.86 40.86 0 01-.14 1.68c-.232.174-.582.255-.838.348-.35.128-.688.255-1.037.383a21.5 21.5 0 00-2.33.997c-.793.394-1.574.823-2.343 1.287-.268.162-.559.324-.85.51.07-.267.151-.51.233-.754zm-.664 1.97c.372-.196.745-.382 1.13-.556.792-.359 1.608-.649 2.377-1.043.746-.383 1.445-.823 2.202-1.17.688-.325 1.398-.615 2.004-1.056-.035.29-.081.591-.128.881-.664 0-1.305.44-1.9.684-.861.348-1.724.742-2.574 1.113-.862.371-1.702.765-2.517 1.217-.233.128-.49.267-.746.418.047-.151.093-.325.152-.487zm-.455 1.404c.327-.22.641-.534.92-.684.77-.441 1.55-.858 2.354-1.23.84-.37 1.667-.753 2.506-1.135.675-.313 1.444-.789 2.202-.916-.047.243-.093.487-.152.73-.128.545-.256 1.09-.384 1.646-.583.325-1.27.499-1.853.8a25.387 25.387 0 00-2.691 1.611c-.874.615-1.806 1.148-2.669 1.774-.408.29-.734.638-1.095.974-.128.116-.268.232-.408.348.408-1.31.84-2.62 1.27-3.918zM50.71 25.33c.745-.428 1.328-1.275 1.992-1.773.91-.684 1.911-1.252 2.82-1.925.862-.637 1.818-1.136 2.75-1.669.338-.185.886-.325 1.317-.556-.129.51-.257 1.031-.385 1.541h-.023c-.758.371-1.573.603-2.354.951a28.106 28.106 0 00-5.162 2.956c-.35.255-.722.522-1.072.8.047-.116.082-.22.117-.325zm1.305-.115c.757-.557 1.55-1.055 2.342-1.542a23.765 23.765 0 012.691-1.415c.676-.313 1.434-.533 2.063-.95-.047.185-.093.382-.14.568-.093.382-.198.765-.303 1.136-.221.07-.454.127-.652.209-.42.173-.828.37-1.247.556-.944.406-1.876.811-2.808 1.24-.91.418-1.83.858-2.657 1.426-.443.302-.85.638-1.247.986.082-.255.163-.499.233-.754.571-.498 1.107-1.02 1.725-1.46zM7.19 7.177a24.671 24.671 0 00-3.81.266c-.653.093-1.317.232-1.97.267-.268.011-.547.011-.792.081.233-2.052 1.387-3.872 3.041-5.1a6.337 6.337 0 00-.512.73c-.233.405-.571.95-.501 1.437.011.07.128.104.163.047.291-.371.407-.882.64-1.299.28-.487.606-.962 1.014-1.345.035-.034.047-.07.035-.104.396-.22.816-.417 1.247-.568-.28.487-.594.95-.897 1.438-.327.533-.77 1.17-.77 1.82 0 .058.082.104.117.046.42-.51.653-1.217.99-1.785.315-.534.642-1.067.91-1.635a4.02 4.02 0 01.734-.139c.104-.012.221-.012.326-.023-.478.568-.827 1.205-1.119 1.878-.28.637-.757 1.507-.734 2.226 0 .08.128.15.187.08.407-.51.536-1.298.769-1.9.314-.789.687-1.589 1.223-2.25l.012-.011c.373.035.745.116 1.107.255-.396.696-.793 1.38-1.142 2.098-.292.592-.676 1.299-.641 1.971 0 .104.14.14.198.058.385-.614.571-1.38.874-2.029.314-.672.676-1.321 1.025-1.97.28.127.56.29.804.463-.28.603-.57 1.217-.862 1.832-.291.626-.687 1.263-.874 1.947-.023.105.105.186.187.105.466-.522.734-1.229 1.013-1.855.28-.614.536-1.229.804-1.843l.035.035c.245.197.466.405.676.637a.156.156 0 00-.093.081 33.83 33.83 0 00-1.037 2.052c-.292.626-.653 1.264-.78 1.948-.013.046.022.104.069.139a19.795 19.795 0 00-1.666-.081zm4.055.243c-.396-.023-.781-.058-1.165-.081.232-.429.372-.916.617-1.356.28-.51.583-1.009.816-1.542.081-.186-.187-.348-.28-.162-.28.58-.652 1.1-.967 1.657-.233.406-.513.881-.536 1.368-.256-.023-.501-.035-.757-.058.011-.011.023-.011.034-.023.432-.545.665-1.229.944-1.855.315-.707.641-1.402 1.002-2.075v-.011a9.047 9.047 0 011.294 2.063c0 .012-.012.035-.012.046-.023.406-.256.812-.454 1.16-.129.22-.478.58-.42.846 0 .011 0 .011.012.023-.058.012-.093 0-.128 0zm.78.081a4.187 4.187 0 00-.384-.046c.256-.14.43-.568.536-.777.116-.232.233-.475.303-.73.058.162.116.313.175.475-.024.012-.035.035-.059.058-.163.29-.396.65-.57 1.02zm.886.186a7.147 7.147 0 00-.478-.116c.105-.255.233-.499.361-.742.094.301.175.591.257.892l-.14-.034zm9.112 41.837c-.361 1.055-.898 2.029-1.352 3.037-.198.429-.373.858-.513 1.31-.058.174-.128.37-.174.568a4.217 4.217 0 01-1.562-.267c.058-.278.105-.556.198-.823.21-.59.466-1.17.711-1.75.245-.58.513-1.148.723-1.727.163-.476.407-.94.442-1.438.012-.209-.291-.197-.314 0-.07.591-.466 1.264-.7 1.797-.256.568-.5 1.148-.757 1.716-.256.568-.664 1.321-.769 2.028a4.557 4.557 0 01-.932-.66c.105-.371.186-.766.338-1.125.233-.545.443-1.078.652-1.634.233-.592.478-1.183.781-1.728.256-.464.501-.892.536-1.426.012-.197-.291-.197-.314 0-.059.638-.513 1.148-.805 1.704a15.616 15.616 0 00-.722 1.623c-.221.58-.734 1.392-.909 2.145a6.99 6.99 0 01-.408-.556 7.9 7.9 0 01-.384-.684c.116-.348.175-.73.28-1.09.186-.58.407-1.17.664-1.727.384-.847.839-1.647.944-2.586.023-.15-.245-.185-.268-.034-.175 1.031-.804 1.924-1.2 2.875-.234.556-.572 1.263-.711 1.936-.595-1.334-.898-2.771-1.072-4.22.652-.66.64-1.774 1.34-2.434.116-.105-.059-.279-.175-.174-.373.324-.594.753-.792 1.194-.14.313-.292.637-.432.962a35.801 35.801 0 01-.105-1.577c.035-.07.07-.127.105-.197.14-.278.292-.556.35-.858.023-.127-.163-.173-.198-.058-.058.22-.163.406-.28.603-.093-3.107.012-6.19.257-9.285.512-6.504 1.06-13.053.885-19.58-.082-2.968-.233-6.016-1.153-8.857-.665-2.075-1.853-4.22-3.706-5.46.793 0 1.585.012 2.377.012 2.086 0 4.172.012 6.246.035 4.206.046 8.4.139 12.595.208 2.04.035 4.079.012 6.13.07 2.027.058 4.1.081 6.082.556 1.748.418 3.157 1.31 4.078 2.864.909 1.518 1.258 3.292 1.468 5.02.536 4.497.175 9.041.606 13.54-.746 2.306-1.492 4.625-2.11 6.955-.36 1.38-.745 2.782-.931 4.196-.175 1.264-.187 2.608-.63 3.814a26.153 26.153 0 00-2.132.035c-.85.058-1.701.15-2.552.232-1.643-.94-4.31 1.623-3.006 3.222.408.499.99.72 1.608.812-1.84 1.403-3.379 3.35-3.717 5.634a.542.542 0 00-.244-.047 29.686 29.686 0 01-2.68-.174c-.92-.092-1.853-.127-2.774-.231-.803-.093-1.573-.116-2.388-.093-.536.012-1.2-.023-1.736.174-.28-.15-.641-.093-.711.301-.21 1.136-.571 2.284-1.224 3.246l.525-1.321c.093-.232-.28-.325-.373-.105-.245.592-.501 1.183-.746 1.785-.081.21-.186.43-.268.661a8.392 8.392 0 01-1.864 1.391c.035-.104.081-.22.14-.324.186-.36.35-.65.477-1.032.315-.916.676-1.808.98-2.724.07-.22-.28-.313-.35-.093a51.87 51.87 0 01-1.142 2.91c-.222.51-.618 1.008-.723 1.565-.35.139-.71.232-1.072.278.035-.174.07-.348.129-.51.174-.533.396-1.055.629-1.565.407-.893.839-1.774 1.13-2.713.081-.243-.256-.336-.326-.127zm.99 5.796c-.058.14-.151.336-.14.498-.617.047-1.235.058-1.84.024a6.712 6.712 0 002.12-.823c-.047.104-.093.197-.14.301zm13.528.046l.035-.07.035-.127c0-.011 0-.011.012-.023.151-.498.407-.962.512-1.472.035-.186-.244-.267-.28-.081-.14.568-.489 1.043-.605 1.611-.012.07.011.116.046.162-.314 0-.629-.011-.955-.011 0-.012.011-.035.023-.07a.11.11 0 00-.023-.104 2.908 2.908 0 01.513-1.46c.128-.186-.164-.348-.303-.175-.397.522-.641 1.148-.641 1.809-2.936-.023-5.861 0-8.786.174a.35.35 0 01.093-.093c.059-.046.024-.14-.046-.162-.047-.012-.082-.012-.105-.012.012-.348.268-.719.431-.997.093-.15-.14-.278-.233-.139-.268.37-.64.904-.513 1.391 0 .012.012.012.012.023-.862.058-1.736.174-2.598.244.011-.047.011-.105.035-.163.035-.15.093-.301.151-.452.035-.116.07-.22.093-.336 2.098-1.333 3.822-3.582 3.729-6.12.49.046 1.025.034 1.491.034.816.012 1.608.104 2.424.174 1.771.15 3.554.383 5.325.394a.902.902 0 00.175-.023c.035 1.553.652 3.06 1.62 4.3-.012.012-.024.012-.036.024-.396.51-.792 1.09-.885 1.739-.257.023-.501.011-.746.011zm2.04-.51c-.06.151-.152.348-.152.534-.245 0-.501-.012-.746-.012v-.046c.093-.545.384-1.032.71-1.484.14.174.292.348.455.51a4.123 4.123 0 00-.268.498zm.267.545c.035-.15.047-.301.093-.452a1.99 1.99 0 01.14-.36c.315.302.653.58 1.002.824-.42 0-.827-.012-1.235-.012zm13.109-.788c-.28.116-.571.22-.874.313.011-.035.023-.058.035-.093.07-.197-.245-.278-.303-.081-.035.104-.082.197-.117.29-.373.104-.746.174-1.13.243.116-.22.28-.417.384-.637.105-.197-.186-.371-.302-.174-.105.185-.408.545-.56.88a4.122 4.122 0 01-.396.047l-1.002.035c.058-.162.117-.336.186-.498.175-.337.362-.661.536-.998.094-.185-.174-.347-.28-.162-.209.394-.465.754-.675 1.148-.082.162-.175.336-.233.51-.117 0-.245.011-.361.011h-.77c.199-.452.49-.869.688-1.275.093-.185-.186-.359-.291-.162-.21.394-.455.765-.653 1.17a2.035 2.035 0 00-.128.28h-.885c.011-.07.023-.152.046-.21a4.15 4.15 0 01.513-.95c.128-.186-.175-.348-.303-.174a4.25 4.25 0 00-.571 1.032c-.035.093-.082.197-.105.313h-.862l-.175-.035c.128-.719.56-1.403 1.049-1.924.128-.14-.07-.348-.222-.22a5.069 5.069 0 00-.908 1.193c-.14.244-.292.545-.35.847-.047-.012-.082-.024-.128-.035a6.579 6.579 0 01-.804-.278c0-.012 0-.012.011-.024.07-.278.198-.544.327-.8.221-.44.49-.857.687-1.31.082-.173-.175-.336-.268-.15-.268.545-.629 1.032-.897 1.577-.082.15-.175.336-.245.533-.198-.105-.396-.209-.594-.337.151-.382.326-.846.373-.939.233-.428.49-.834.699-1.263.093-.174-.175-.336-.268-.162-.373.684-.909 1.356-1.177 2.098a6.332 6.332 0 01-.536-.429c0-.012.012-.035.023-.046.21-.499.525-1.032.898-1.438.14-.15-.082-.37-.222-.22-.151.15-.687.823-1.002 1.426a4.962 4.962 0 01-.42-.44c.036-.14.047-.302.094-.43.105-.29.256-.568.385-.846.07-.15-.152-.29-.233-.139-.164.301-.327.591-.455.904-.023.058-.047.116-.07.186-.128-.174-.256-.337-.373-.522.07-.232.14-.452.257-.684.163-.313.35-.603.547-.904.105-.174-.151-.313-.268-.15-.116.161-.594.787-.804 1.297a6.647 6.647 0 01-.314-.649c.023-.058.023-.116.046-.197.035-.197.105-.394.198-.568.152-.324.362-.626.641-.87.105-.092-.035-.277-.151-.196-.338.255-.595.58-.781.95a2.167 2.167 0 00-.151.325 7.863 7.863 0 01-.129-.499c.117-.208.198-.44.303-.637.163-.302.327-.603.443-.928.035-.092-.128-.162-.163-.07-.163.337-.373.65-.56.975l-.104.174c-.338-2.852 1.701-5.17 3.74-6.944h.175c1.538.046 3.076-.058 4.626-.105h.233c-.082.105-.152.22-.222.337-.14.22-.373.486-.326.765.012.07.093.08.14.058.221-.116.326-.453.454-.673.094-.162.198-.336.303-.498.361 0 .723 0 1.084.011-.466.522-1.375 1.264-1.049 1.82.047.07.14.058.187 0 .105-.15.116-.359.198-.521a2.47 2.47 0 01.396-.522c.221-.243.454-.487.63-.765l.838.035a9.38 9.38 0 00-.617.892c-.199.337-.571.893-.28 1.252.105.128.268-.023.245-.139-.059-.382.372-.939.547-1.252.152-.255.303-.498.466-.73.35.012.711.035 1.06.046-.326.394-.629.8-.885 1.24-.233.383-.582.928-.49 1.392.024.092.152.127.21.058.303-.337.397-.858.618-1.252.268-.487.57-.95.92-1.391.012-.012.012-.024.024-.035.186 0 .384 0 .582-.023.92.59 1.736 1.217 2.436 2.028-.012.012-.024.023-.024.035-.268.44-.547.858-.827 1.287-.245.36-.594.765-.664 1.205-.023.128.105.198.21.116.337-.278.547-.765.78-1.136.257-.405.513-.823.746-1.24l.315.417c.046.058.093.128.128.197a6.8 6.8 0 00-.862 1.136c-.245.395-.583.916-.513 1.391.012.093.151.128.21.058.29-.359.384-.857.617-1.263a6.51 6.51 0 01.734-1.043c.175.266.35.544.513.823-.618.66-1.503 1.657-1.049 2.063.117.104.292.035.292-.116.023-.452.396-.87.652-1.217.093-.128.187-.244.28-.371.151.29.28.591.384.893-.116.15-.221.313-.326.475-.14.22-.64.858-.443 1.124.035.047.082.07.14.058.291-.046.443-.672.571-.892.058-.116.128-.232.198-.348.093.325.151.66.175.997 0 .081.012.162.012.243-.35.464-.7.95-.863 1.473-.035.115.128.208.21.115.21-.22.373-.475.548-.73-.478 1.901-2.47 3.431-4.183 4.162zm2.027.464a9.021 9.021 0 001.095-.789c-.151.232-.36.487-.443.742a12.33 12.33 0 01-.652.047zm5.896-3.038c-.676.962-1.666 1.855-2.762 2.388.117-.243.257-.475.42-.707.128-.185-.175-.347-.303-.174a4.876 4.876 0 00-.618 1.032c-.011.023-.023.046-.035.081-.07.023-.151.058-.233.081a9.278 9.278 0 01-.606.151c.059-.185.14-.36.222-.545.198-.429.454-.823.734-1.194.116-.15-.14-.348-.256-.197-.35.44-.665.916-.91 1.414a4.272 4.272 0 00-.256.603l-.256.035c.187-.232.315-.545.42-.777.058-.139.128-.278.174-.417 1.002-.985 1.748-2.191 1.946-3.582a5.19 5.19 0 000-1.345c1.165.07 2.296-.104 3.39-.464-.104 1.264-.302 2.528-1.071 3.617zM31.263 34.49c2.202.08 4.404.162 6.606.011 1.06-.07 2.133-.185 3.193-.29.443-.046.897-.127 1.34-.15.361-.024.722.08 1.072.057.186-.011.361-.15.35-.347-.035-.916-1.003-1.067-1.748-.986-1.049.116-2.11.197-3.158.325-2.307.278-4.672.209-6.991.139a148.03 148.03 0 00-6.828-.035c-1.107.012-2.202 0-3.31-.116-1.013-.104-2.027-.104-3.017.209-.233.07-.245.406 0 .475.932.279 1.922.197 2.878.336.99.151 2.004.21 3.006.232 2.214.047 4.405.058 6.607.14zm-7.807-7.698c1.876.012 3.729.197 5.593.209 1.934.011 3.88-.093 5.814.046.886.058 1.771.162 2.657.174.909.012 1.817-.058 2.726-.07a34.481 34.481 0 003.1-.22 8.84 8.84 0 01.757-.07c.175-.011.338-.011.513 0 .14 0 .314.151.093-.034.42.348 1.049.023.92-.534-.28-1.24-2.563-.568-3.39-.486-.979.092-1.958.07-2.936.116-.968.034-1.935.058-2.902 0-.955-.058-1.9-.163-2.843-.174-1.025-.012-2.05.046-3.088.08a66.365 66.365 0 01-3.03.047c-.966-.011-1.933-.15-2.9-.139-1.107.012-2.203-.058-3.31-.046-.524 0-1.06-.093-1.573-.012-.43.07-.839.22-1.258.325-.21.046-.221.382 0 .429.722.127 1.48.15 2.214.208.932.058 1.91.14 2.843.151zm-4.766-16.3c.944.348 2.04.14 3.03.232 1.118.093 2.237.104 3.356.058 2.248-.093 4.485-.023 6.723.011 2.202.035 4.392-.011 6.595.093 1.072.047 2.132.15 3.192.255.665.058 1.492-.034 2.051.36.431.301 1.002-.197.874-.661-.245-.881-1.154-.916-1.923-.95-1.048-.047-2.085-.198-3.122-.279-2.284-.174-4.58-.127-6.863-.15-2.354-.024-4.708-.128-7.061-.012-1.189.058-2.39.139-3.578.104-1.072-.035-2.248-.023-3.262.371-.303.093-.303.464-.012.568zm-.29 8.278c1.014.336 2.109.278 3.17.313 1.083.023 2.178.116 3.262.128 2.237.023 4.486-.047 6.723-.07 2.272-.035 4.544-.081 6.805-.093 1.095 0 2.179.012 3.262.058 1.014.047 2.237.22 3.17-.232.303-.15.303-.66 0-.8-.92-.44-2.063-.243-3.065-.266a76.23 76.23 0 00-3.262-.046c-2.307.023-4.615.092-6.922.127-2.202.046-4.416.116-6.618.15-1.084.024-2.179-.046-3.262-.034-1.084.011-2.238-.035-3.275.313-.21.07-.21.383.012.452z" fill="#FFF06A"/></g><defs><clipPath id="clip0_1_608"><path fill="#fff" d="M0 0h62v57H0z"/></clipPath></defs></svg>