<svg width="79" height="62" fill="none" xmlns="http://www.w3.org/2000/svg"><g clip-path="url(#clip0_1_641)"><path d="M22.488 49.1c.058-.22.102-.41.218-.615.102-.176.219-.351.306-.541.102-.205-.19-.395-.32-.19-.233.394-.656.79-.656 1.287.015.263.393.321.452.058zm-1.238-.337c.029-.307.174-.541.32-.79.146-.249-.218-.453-.379-.22-.218.308-.422.63-.451 1.024 0 .307.48.293.51-.014zm6.423 2.355c.073 0 .145-.059.16-.117.015-.088 0-.176.015-.264.014-.131.072-.263.116-.38.102-.234.219-.453.306-.688.073-.233-.277-.321-.364-.102-.088.249-.932 1.507-.233 1.55zm-1.296-.63a2.65 2.65 0 01.582-1.243c.16-.19-.087-.438-.277-.278-.378.366-.742.907-.772 1.448-.014.278.423.337.466.074zm-2.812-.95c.088.015.16-.015.19-.102.029-.088.044-.234.102-.337.073-.117.16-.234.218-.366.102-.219-.204-.41-.335-.19-.102.161-.233.307-.32.483-.073.16-.117.468.145.512zm1.428.585c.073.03.145.03.204-.03.116-.116.13-.365.204-.511.087-.205.189-.395.262-.6.073-.234-.277-.322-.35-.102-.116.234-.728 1.038-.32 1.243zm3.845 1.39c.233-.074.306-.235.204-.366.073-.468.306-.849.582-1.243.132-.19-.174-.425-.32-.25-.379.469-.787.98-.787 1.61 0 .16.16.292.32.248zm4.777 1.491c.117.044.262-.044.291-.16.015-.074.015-.162.03-.235.014-.117.087-.234.145-.35a2.92 2.92 0 01.379-.571c.175-.19-.087-.468-.291-.293-.277.264-1.253 1.36-.554 1.61zm-14.011-4.71c.116.03.204-.043.247-.146.102-.248.219-.468.394-.658.145-.16-.073-.395-.233-.234-.233.22-.437.498-.554.79-.029.102.058.22.146.249zm10.676 3.262c0-.014.014-.029.014-.044a.093.093 0 000-.087c.044-.41.32-.776.496-1.156.102-.22-.204-.41-.335-.19-.248.41-.714.878-.67 1.404.029.278.407.366.495.073zm6.947 2.501c.16 0 .204-.16.233-.278.044-.146.073-.307.073-.453 0-.278-.422-.278-.437 0-.014.146-.058.278-.087.424 0 .117.044.293.218.307zm-.932-.292c.16.073.335-.015.35-.205.014-.22 0-.38.087-.585.073-.205.175-.38.233-.585.073-.249-.32-.424-.422-.176-.16.366-.86 1.258-.248 1.55zm19.663-12.213c-.335 1.14-.627 2.282-.714 3.466-.073.907-.16 2.136.233 2.984.03.073.175.088.219 0 .35-.804.043-1.857.072-2.72.03-1.229.292-2.443.598-3.628.058-.248-.335-.35-.408-.102zm-20.9 11.496c.043-.35.145-.585.378-.848.19-.205-.102-.512-.306-.307-.32.307-.583.687-.583 1.155-.014.337.466.322.51 0zm-3.555-1.097c-.029-.19.102-.439.19-.6.102-.204.233-.38.35-.57.13-.22-.19-.38-.336-.19-.277.38-.888 1.024-.64 1.55.13.234.48.044.436-.19zm1.253.497c.102-.336.277-.687.524-.95.16-.176-.087-.424-.262-.264-.277.278-.655.746-.64 1.17 0 .22.305.264.378.044zm-19.197-6.347c.073-.234.131-.468.292-.658.16-.176-.088-.425-.263-.264-.218.22-.334.512-.451.805-.087.263.335.38.422.117zm33.237-23.84c.365.087.54-.22.554-.542a.168.168 0 00-.262-.146c-.19.102-.16-.044-.19-.22a2.564 2.564 0 01-.029-.746 4.55 4.55 0 01.364-1.389c.117-.263-.262-.497-.393-.234-.393.775-.699 1.755-.524 2.633.043.263.19.585.48.643zm-1.908 1.067c.35-.015.437-.337.394-.614-.015-.103-.146-.132-.219-.088-.16.088-.16-.015-.19-.205-.043-.278-.014-.57.03-.848a5.065 5.065 0 01.583-1.77c.13-.249-.233-.483-.394-.234-.51.848-1.063 2.18-.772 3.174.073.248.263.585.568.585zm3.758-1.77c.16-.073.219-.16.291-.322.044-.087.03-.204-.058-.248a.437.437 0 00-.204-.059c-.13-.424 0-.98.073-1.36.102-.483.233-.965.408-1.433.102-.293-.335-.395-.452-.132-.378.892-1.063 2.516-.48 3.437.087.146.262.19.422.117zm7.982 2.91c.364-.965.539-2.047 1.034-2.968.102-.19-.175-.351-.277-.161-.437.79-.597 1.682-.917 2.515-.408 1.068-.816 2.136-1.166 3.218-.364 1.156-.742 2.297-1.223 3.408-.408.95-.932 1.887-1.18 2.896-.029.117.131.19.204.088 1.121-1.77 1.864-3.905 2.476-5.91.32-1.023.67-2.061 1.049-3.085zm-3.336-.321c.32-.878.408-1.814.845-2.647.087-.161-.145-.293-.248-.147-.407.732-.553 1.536-.815 2.326-.32 1.01-.801 1.96-1.136 2.954a222 222 0 01-1.034 2.852c-.19.512-.408 1.024-.583 1.536-.16.439-.233.922-.466 1.331-.058.103.073.19.146.117.582-.512.757-1.404 1.02-2.091.363-.98.742-1.975 1.063-2.97.378-1.111.815-2.179 1.208-3.261zm-18.395-.717a.18.18 0 00.029-.19c-.117-.175-.262-.22-.335-.439-.087-.292-.014-.687.015-.98.072-.526.218-1.023.378-1.52.073-.25-.306-.352-.393-.103-.248.717-.51 1.477-.553 2.223-.015.293 0 .673.204.907.174.19.48.307.655.102zM6.757 42.122a.408.408 0 00.117-.307c0-.058-.087-.058-.073 0 0 .103 0 .19-.073.278-.043.015 0 .059.03.03zm52.653-5.88c.116.103.29.03.29-.116.015-.483.394-1.01.642-1.404.276-.44.568-.849.874-1.273.175-.248-.219-.468-.394-.234-.393.527-.786 1.053-1.136 1.609-.203.322-.699 1.053-.276 1.419zm-40.811 11.57a4.78 4.78 0 00.364-.892c.073-.264-.306-.351-.393-.103-.117.278-.306.527-.394.82-.072.248.306.424.423.175zm14.186-25.098a.13.13 0 00.087-.147c-.058-.175-.145-.321-.174-.512-.03-.277.043-.585.102-.848.102-.453.276-.907.29-1.375 0-.248-.363-.248-.392 0-.015.278-1.02 3.276.087 2.882zm28.212 13.134c.291.132.32-.22.394-.424.145-.44.465-.82.757-1.17.19-.234-.146-.556-.32-.322-.394.497-.889 1.053-.918 1.726a.188.188 0 00.087.19zm-3.422 1.404c.072.03.145-.03.16-.088.218-.673.393-1.316.699-1.974.466-1.01.976-1.99 1.587-2.926.16-.234-.218-.438-.364-.219-.32.468-3.335 4.812-2.082 5.207zM11.01 44.594c.146-.292.263-.57.423-.848.102-.19-.16-.322-.277-.161-.19.263-.437.527-.539.848-.058.22.291.38.393.161zm3.816 1.858c.16-.234.277-.497.437-.746.132-.22-.189-.395-.335-.205-.16.234-.32.468-.466.717-.174.248.204.468.364.234zm-2.883-1.39c.102-.22.174-.424.335-.614.145-.146-.073-.366-.219-.22-.204.19-.35.44-.422.703-.044.175.218.321.306.131zm-4.56-2.53c0-.205.074-.38.146-.556.073-.16-.145-.292-.233-.132-.116.22-.203.44-.233.703-.029.19.306.19.32-.015zm8.565 4.344c.204-.249.291-.6.466-.878.117-.204-.19-.38-.32-.19-.19.264-.38.57-.496.863-.087.19.219.366.35.205zm.976.834c.262-.015.306-.278.408-.483.102-.22.218-.439.35-.644.145-.219-.205-.424-.35-.204a5.54 5.54 0 00-.379.629c-.102.19-.291.41-.16.628.029.044.087.088.13.074zm-4.093-2.107c.058-.234.073-.453.233-.643.146-.176-.087-.424-.248-.249-.218.205-.378.541-.349.863.03.176.32.249.364.03zm-4.18-2.281c.116-.205.175-.424.335-.614.146-.161-.087-.395-.248-.25-.218.206-.393.469-.437.761-.014.205.263.249.35.103zm-.874-.234c.204.044.233-.264.291-.395.088-.19.219-.351.292-.556.072-.205-.233-.278-.32-.088-.074.19-.248.337-.336.527-.073.146-.145.468.073.512zm1.296.629c.03.044.073.058.117.044.131-.044.19-.205.233-.322.058-.132.131-.249.233-.351.131-.147-.073-.351-.219-.22a1.468 1.468 0 00-.29.38c-.074.118-.176.337-.074.469zm1.064.424c.072-.249.189-.483.262-.731.044-.176-.219-.308-.306-.132-.117.263-.35.497-.35.819 0 .22.335.278.394.044zm68.586-4.71c-.583-.863-1.88-1.36-2.899-1.55-.16-.205-.407-.351-.684-.293-.233-.424-.32-.994-.35-1.448-.087-.921-.146-1.901.058-2.793.175-.775.219-1.58.408-2.355.146-.585.35-1.14.54-1.711l.392-.22c.452-.248.86-.57 1.311-.848.423-.263.816-.527 1.15-.907.438-.526.132-1.228-.538-1.302-1.617-.16-3.059-.994-4.53-1.623-1.718-.717-3.408-1.477-5.112-2.209-.64-.277-1.282-.526-1.923-.79-.072-1.564-.407-3.07-1.543-4.27-.132-.132-.263-.263-.408-.38a32.54 32.54 0 002.068-.878c.495-.234.961-.512 1.471-.731.451-.205.874-.366 1.107-.834.874-1.682-1.864-2.984-3.059-3.32-2.17-.63-4.326-1.17-6.423-1.99-2.243-.877-4.515-1.696-6.714-2.647-2.083-.906-4.21-1.755-6.278-2.705a33.32 33.32 0 00-3.087-1.258c-1.093-.366-2.287-.717-3.307-1.273-.655-.35-1.18-.775-1.864-.965-.452-.336-1.282-.132-1.282.6v.014c-1.937.907-4.034 1.463-6.044 2.18a95.682 95.682 0 00-6.365 2.486c-2.185.95-4.311 2.018-6.525 2.896-1.893.746-3.83 1.419-5.724 2.194-1.122.468-2.636 1.126-2.913 2.472-.35 1.696 1.704 2.969 2.928 3.627 2.17 1.155 4.442 2.047 6.743 2.881-.16 1.872-.03 3.774-.015 5.66-1.107.278-2.14.864-3.131 1.405-1.15.629-2.258 1.33-3.379 2.003-2.33 1.39-4.704 2.736-6.918 4.315-1.88 1.346-3.656 2.881-4.763 4.944-1.107 2.047-1.486 4.548-.787 6.8 1.122 3.599 4.676 5.398 7.982 6.539 4.66 1.609 9.409 2.983 14.128 4.417 2.884.877 5.753 1.828 8.622 2.779 2.782.921 5.535 1.96 8.055 3.495a.779.779 0 00.48.117.431.431 0 00.423.015c1.53-.79 3-1.697 4.5-2.545 1.588-.892 3.234-1.682 4.821-2.574 3.16-1.74 6.35-3.393 9.555-5.017 3.306-1.682 6.583-3.437 9.846-5.192 1.53-.82 3.058-1.653 4.602-2.443.728-.365 1.457-.746 2.127-1.199.582-.395 1.121-.76 1.748-1.053 1.063-.439 2.33-1.273 1.5-2.516zm-4.457-8.57c-.233.54-.335 1.082-.51 1.637-.146.469-.35.937-.422 1.42-.146 1.067-.102 2.222.072 3.275.059.352.175.776.365 1.127a80.06 80.06 0 00-2.389 1.448c.233-.688.248-1.99.277-2.224.058-.848.145-1.696.276-2.544.088-.6.16-1.2.292-1.785.13-.585.335-1.14.35-1.74.014-.278-.394-.264-.423 0-.058.6-.306 1.14-.452 1.725-.145.542-.218 1.097-.32 1.653-.131.76-.262 1.521-.306 2.282-.029.541-.073 1.082-.116 1.623-.03.264-.044.527-.073.805 0 .088-.044.482-.015.424-.014.044-.029.088-.014.117-.408.249-.816.512-1.224.76.102-.409.131-.848.16-1.257.073-.82.102-1.624.16-2.443.117-1.55.074-3.174.7-4.622a.206.206 0 00-.03-.204c.743-.483 1.486-.98 2.258-1.42.612-.35 1.238-.687 1.85-1.038-.16.308-.32.63-.466.98zm-7.093 3.29c.451.03.699-.234 1.092-.468.146-.088.291-.16.437-.234-.146.57-.335 1.156-.466 1.726a20.237 20.237 0 00-.306 1.843c-.087-1.038-.364-1.93-.757-2.867zm.364 6.48c-.073.555-.175 1.111-.248 1.667-.335.19-.655.38-1.005.556.262-.424.554-.834.801-1.273.19-.307.335-.629.452-.95zm.495.511c.146-1.053.219-2.12.32-3.173.102-.995.19-1.975.365-2.955.102-.57.233-1.155.305-1.74.248-.117.496-.234.729-.38.174-.103.35-.22.524-.322-.553 1.228-.67 2.56-.772 3.89-.058.775-.145 1.55-.19 2.326-.043.79-.203 1.609-.218 2.413-.35.22-.684.424-1.034.629-.029.014-.073.044-.102.058.03-.248.044-.511.073-.745zm-1.398-13.25c-.058-1.449-.146-2.882-.102-4.33.014-.263.014-.541.014-.805.685.293 1.355.6 2.025.907 1.646.76 3.292 1.536 4.967 2.267.96.424 1.864.892 2.825 1.229-.379.263-.743.512-1.15.731-.99.541-1.967 1.126-2.957 1.668a35.137 35.137 0 00-2.84 1.74c-.714.483-1.53.82-2.243 1.302a.84.84 0 00-.597.292 1.022 1.022 0 00-.306-.307c.51-1.462.422-3.188.364-4.695zm-1.427 5.66c.029.029.043.073.087.102.014 0 .058.014.087.058.044.03.088.044.146.059-.058-.015-.088-.015-.131-.03a.116.116 0 01.029.074c.044.146.102.292.175.424.204.439.422.834.582 1.302.32.994.379 2.15.306 3.188-.073 1.068-.553 1.916-1.136 2.78-.175.262-.335.526-.48.789l-.132-.307c-.466-1.097-.932-2.223-1.208-3.394-.248-1.038-.306-2.15.043-3.173.175-.483.452-.98.816-1.346.233-.234.539-.351.816-.527zm-1.748 10.735a3.307 3.307 0 01-.335.146c.014-.19 0-.395.014-.6.015-.394.03-.774.102-1.155.19.527.32 1.083.219 1.61zm1.369-23.577a36.272 36.272 0 01-1.136-.498c-1.355-.6-2.651-1.243-4.108-1.477 1.093-.438 2.2-.863 3.292-1.301 1.31.73 1.792 1.945 1.952 3.276zm-6.132-3.379c-.146-.248-.175-.526-.16-.804.145.014.291.044.451.058.364.059.743.088 1.122.132v.058c-.48.205-.947.38-1.413.556zm7.894-4.636c.058.029.117.058.175.102.175.117.364.249.539.395-.03.117-.044.234-.058.351-.015.102-.03.19-.044.293l-.219.087c-.306.132-.597.278-.903.41.044-.512.175-1.2.481-1.594.015-.015.03-.03.03-.044zm-55.012 1.287c-.305-.293-.553-.556-.262-.95a1.86 1.86 0 01.466-.425 10.89 10.89 0 01-.204 1.375zm7.735 3.817c-.452-.16-.889-.336-1.34-.497a1.231 1.231 0 01-.044-.41c.029-.497.16-1.082.422-1.506.117-.205-.19-.395-.32-.19-.262.41-.393.907-.48 1.375-.03.16-.06.35-.06.54-.334-.13-.67-.262-.99-.394-.043-.015-.102-.044-.145-.059a2.9 2.9 0 01.378-1.872c.117-.19-.174-.35-.29-.175-.161.234-.569 1.228-.54 1.857-.32-.131-.64-.263-.961-.41 0-.014-.015-.029-.015-.058-.043-.278 0-.556.059-.819.087-.395.233-.775.306-1.185.043-.219-.277-.307-.335-.087-.102.41-.525 1.257-.54 1.901a21.43 21.43 0 01-.815-.41c0-.087.015-.16.015-.248.043-.483.13-.965.204-1.463.029-.22-.292-.307-.335-.088-.088.469-.175.937-.248 1.405-.015.058-.015.117-.03.175a15.275 15.275 0 01-.655-.41c.03-.233.044-.482.088-.701.087-.425.19-.849.247-1.273.03-.175-.233-.248-.262-.073-.102.527-.364 1.17-.437 1.784a2.139 2.139 0 01-.276-.234c.13-.672.116-1.638.101-1.799 0-.014 0-.029-.014-.043.277-.161.583-.278.83-.396 1.864-.819 3.802-1.462 5.695-2.237 2.2-.892 4.311-1.96 6.467-2.94 2.17-.995 4.37-1.945 6.598-2.823 2.024-.79 4.005-1.492 5.811-2.676a.88.88 0 00.553.248c.423.03.787.337 1.137.556.364.234.728.424 1.136.585 1.034.41 2.068.79 3.117 1.14 1.951.674 3.786 1.624 5.724 2.326 1.966.717 3.86 1.638 5.825 2.37 2.083.775 4.151 1.594 6.263 2.267.947.307 1.894.6 2.84.907.714.234 1.5.41 2.2.731-.32.307-.51.819-.656 1.229-.087.248-.203.585-.189.892a27.8 27.8 0 01-1.136.497c-.014-.293.146-.717.204-.907.117-.424.262-.819.379-1.243.058-.22-.277-.38-.365-.16-.262.599-.597 1.17-.771 1.798a2.445 2.445 0 00-.059.76 18.53 18.53 0 01-.844.337c-.03-.015-.059-.015-.088-.03.131-.672.364-1.33.379-2.032 0-.264-.379-.249-.393 0-.044.658-.38 1.228-.583 1.857-.16-.044-.32-.073-.48-.102l-.83-.132c.043-.336.101-.672.218-.98.073-.204-.233-.321-.335-.146a4.521 4.521 0 00-.408 1.053c-.48-.058-.976-.117-1.457-.16.044-.074.073-.147.131-.206.16-.204-.102-.482-.29-.292a2.545 2.545 0 00-.278.453l-1.092-.131c-3.146-.424-6.292-.76-9.467-.995-3.481-.248-6.933-.629-10.429-.35a.187.187 0 00-.043.365c1.281.453 2.563.497 3.903.629 1.457.146 2.913.38 4.37.512 3.014.292 6.059.497 9.059.936.597.087 1.209.175 1.806.263-.219.76-.364 1.667-.015 1.945-.568.22-1.15.454-1.718.688 0-.117-.03-.249-.03-.366.015-.687.088-1.507.35-2.135.102-.234-.291-.395-.408-.176-.29.6-.437 1.346-.538 2.004-.03.175-.044.6.029.921-.54.22-1.078.454-1.617.688h-.015c-.189-.015-.16.073-.145-.146.014-.117 0-.25 0-.38.058-.659.204-1.361.48-1.975.102-.249-.247-.468-.378-.22-.38.775-.772 1.77-.714 2.662a.909.909 0 00.116.351c-.087.044-.174.073-.247.117-.291.132-.568.264-.86.395.015-.102-.072-.22-.189-.175-.816.307-.073-2.165.088-2.516.101-.249-.248-.468-.38-.22-.378.746-.844 1.858-.654 2.706a.909.909 0 00.393.57c-1.384.659-2.738 1.346-4.122 2.034-.918.453-1.864.892-2.855 1.229.03-.015.058-.03.073-.059a.914.914 0 00.248-.468c.029-.146-.088-.249-.219-.22a.493.493 0 00-.175.059c-.335-.673.32-2.15.568-2.691.117-.263-.262-.498-.393-.234-.437.848-1.442 2.881-.393 3.598.058.044.146.044.218.03-.466.16-.932.292-1.398.38 0-.015.015-.044.015-.06.014-.13-.131-.233-.233-.13-.437.409-.263-1.376-.233-1.507.087-.527.247-1.039.407-1.565.088-.278-.335-.395-.437-.117-.32.921-.932 2.296-.582 3.276a.846.846 0 00.13.249c-.087.014-.16.014-.247.029-.291.03-.582.03-.874.015l-.029-.03c-.043-.058-.058-.058-.072-.044-.059-.307-.03-.628 0-.936.058-.672.16-1.36.349-2.003.073-.264-.335-.38-.422-.117a11.699 11.699 0 00-.51 2.354c-.015.117-.03.44.029.732a8.81 8.81 0 01-1.049-.161c-.014-.015-.014-.044-.029-.059-.306-.395-.291-.702-.204-1.214.073-.438.19-.95.423-1.345.145-.249-.233-.468-.379-.22-.364.57-.568 1.375-.626 2.048a1.72 1.72 0 00.087.614c-.218-.058-.451-.117-.67-.19.015 0 .03-.014.03-.014a.197.197 0 00.087-.205c-.059-.205-.248-.322-.32-.542-.103-.35-.015-.79.043-1.14.087-.541.291-1.083.306-1.638 0-.264-.393-.264-.408 0-.058.804-.466 1.55-.524 2.354-.015.22.043.702.218.995a27.753 27.753 0 01-1.544-.57c-1.02-.395-2.039-.834-3.058-1.258 0-.03-.015-.059-.015-.103-.058-.292-.218-.497-.218-.819a4.846 4.846 0 01.407-1.974c.102-.234-.218-.424-.335-.205-.305.614-.815 1.96-.539 2.794-.335-.147-.684-.278-1.02-.425-.188-.76-.072-1.784.321-2.457.131-.234-.218-.453-.364-.22-.291.454-.408 1.04-.495 1.566-.044.263-.087.585-.058.877-.073-.029-.131-.058-.204-.087-.32-.132-.641-.249-.961-.366-.19-.82.16-1.784.335-2.56.058-.248-.306-.35-.38-.102-.174.629-.625 1.638-.553 2.443-.378-.147-.757-.278-1.136-.41.059-.804.204-1.609.204-2.413 0-.264-.393-.264-.408 0-.029.746-.218 1.477-.305 2.223l-1.137-.395c.03-.717.117-1.375.365-2.077.087-.22-.263-.307-.35-.102a6.736 6.736 0 00-.495 2.003c-.379-.131-.743-.263-1.122-.394-.043-.132-.029-.264-.029-.395.015-.644.248-1.258.262-1.902 0-.263-.378-.248-.393 0-.044.63-.32 1.229-.364 1.858v.263c-.306-.102-.612-.22-.918-.322v-.014c-.029-.103-.116-.19-.145-.293-.044-.146-.015-.322 0-.468.058-.643.32-1.258.335-1.901 0-.22-.306-.205-.32 0-.059.643-.394 1.243-.481 1.887-.015.102-.03.336 0 .555a27.79 27.79 0 01-1.005-.365c.087-.176-.03-.512-.015-.717.044-.6.219-1.2.393-1.77.073-.234-.276-.322-.35-.102-.043.263-.538 1.843-.422 2.486zm38.174 11.803c-.364.878-.816 1.8-.99 2.72-1.02.864-2.302 1.449-3.496 1.975-1.893.82-3.83 1.522-5.84 1.99-4.472 1.038-8.812.248-13.255-.512-2.199-.38-4.413-.776-6.568-1.36-1.632-.44-3.365-.98-4.676-2.092-1.835-1.55-1.937-3.774-1.864-6.011.058-2.121-.029-4.403-.495-6.509 1.587.556 3.175 1.097 4.748 1.697 2.2.819 4.37 1.682 6.51 2.618 2.01.877 4.035 1.77 6.19 2.194 3.788.73 7.08-.849 10.342-2.516-.496.848-.903 1.945-.714 2.779.03.102.16.088.19 0 .16-.556.203-1.126.378-1.682.146-.454.335-.892.568-1.302a27.8 27.8 0 01.932-.468c-.364.717-.67 1.463-.917 2.223-.32 1.01-.685 2.238-.437 3.291.029.102.174.102.204 0 .276-1.038.306-2.135.611-3.174.262-.877.597-1.726.976-2.56.073-.043.16-.072.233-.116.51-.249 1.02-.498 1.544-.732-.466 1.331-.976 2.633-1.47 3.964-.453 1.214-.919 2.604-1.093 3.876-.015.132.145.22.218.088.728-1.185.86-2.72 1.355-4.022.495-1.287.903-2.59 1.31-3.906.015-.058 0-.117-.029-.146a99.868 99.868 0 014.079-1.74c-.918 2.003-1.66 4.08-2.404 6.157-.422 1.2-.8 2.413-1.209 3.627-.393 1.2-.946 2.37-1.281 3.584-.03.132.13.175.204.088.713-.936 1.078-2.18 1.456-3.291.393-1.17.728-2.355 1.136-3.525.801-2.296 1.559-4.607 2.535-6.83.495-.205.99-.395 1.47-.585-.029 1.404.059 2.808.19 4.197-.073-.03-.146 0-.204.088-.772 1.419-1.223 2.984-1.835 4.476a34.12 34.12 0 00-.801 2.34c-.277.863-.656 1.71-.83 2.603-.03.146.145.22.233.102.96-1.301 1.136-3.086 1.718-4.578.597-1.52 1.02-3.13 1.748-4.607l.175 1.61c.073.584.116 1.198.13 1.784-.218.76-.684 1.477-.975 2.194zm.947-.98c-.102.922-.379 1.8-.932 2.604-.059.088-.117.16-.19.249.292-.673.51-1.39.758-2.048.116-.263.233-.527.364-.805zm-.35-11.057c-.335.132-.684.263-1.02.395v-.015c.015-.087-.028-.146-.101-.16-.073-.293 0-.79.043-1.097.015-.117.03-.234.044-.366l.903.132c-.087.468-.073.892.131 1.111zM5.621 34.84c2.229-1.77 4.734-3.203 7.137-4.71 1.21-.746 2.389-1.536 3.598-2.267.961-.585 2.01-1.053 2.956-1.667 0 .087 0 .175-.014.263-.087 2.077.029 4.212 1.325 5.938 1.165 1.536 2.913 2.428 4.676 3.042a.27.27 0 00.102.03c-.073.087-.16.16-.233.234-.263.248-.554.482-.743.79-.044.058.029.131.087.087.335-.22.612-.526.889-.804.072-.073.145-.161.218-.234.335.117.685.22 1.02.322-.277.233-.583.497-.7.848-.029.087.073.117.132.073.305-.249.582-.556.888-.82l.015-.014c.262.073.51.132.772.205 0 0 0 .015-.015.015-.233.263-.568.585-.568.95 0 .088.102.147.175.103.306-.176.51-.6.728-.878.03-.03.044-.058.073-.088.393.088.8.176 1.194.264-.087.102-.16.204-.247.292-.204.249-.496.541-.452.892 0 .074.087.147.16.088.291-.205.48-.6.714-.877.087-.103.16-.205.248-.308.393.074.786.147 1.165.22-.117.131-.219.263-.335.395-.204.263-.466.54-.408.907.014.073.116.116.175.073.305-.176.51-.6.728-.878.102-.132.204-.278.306-.41.19.03.364.074.553.103.03 0 .044.014.073.014a6.867 6.867 0 00-.291.395c-.19.278-.568.776-.379 1.127.03.073.117.073.175.043.291-.131.408-.584.553-.848a3.57 3.57 0 01.408-.629c.393.073.772.147 1.165.205a5.059 5.059 0 00-.32.453c-.175.278-.568.79-.452 1.141.03.073.102.132.19.103.32-.117.408-.57.553-.849.131-.263.277-.555.48-.775l1.268.22c-.146.19-.291.38-.422.585-.233.35-.627.833-.496 1.287.03.087.132.131.204.087.364-.219.51-.76.729-1.111.145-.263.305-.512.48-.76.495.087 1.005.16 1.515.233-.19.278-.379.57-.553.863-.175.293-.554.717-.408 1.068.029.073.087.117.16.088.364-.088.495-.614.655-.922.19-.35.408-.702.627-1.038.378.058.772.102 1.15.146-.16.205-.32.395-.466.614-.13.19-.626.878-.204 1.039.335.132.568-.629.7-.82.174-.262.349-.511.51-.76.45.044.902.073 1.368.103-.087.102-.16.204-.247.307-.219.278-.583.687-.452 1.067.03.088.117.117.19.074.32-.161.495-.673.699-.966.116-.16.218-.322.335-.482.393.014.786.029 1.18.014l-.175.263c-.248.395-.598.937-.394 1.405.044.087.16.087.233.029.364-.307.466-.922.7-1.316.072-.132.16-.264.247-.38a39.42 39.42 0 001.31-.074c-.13.176-.261.336-.392.512-.277.395-.656.892-.554 1.404.015.073.131.132.19.073.407-.292.597-.863.859-1.272.175-.264.364-.527.539-.775.364-.044.713-.103 1.078-.161.35-.059.713-.132 1.063-.22-.452.63-.932 1.258-1.194 2.004-.03.088.087.19.16.132.524-.366.772-1.01 1.092-1.55.131-.235.277-.454.422-.688a32.573 32.573 0 001.72-.483 9.898 9.898 0 01-.307.41c-.51.643-1.31 1.433-1.267 2.31 0 .103.146.176.218.088.51-.614.845-1.389 1.34-2.032.219-.293.452-.659.7-1.01a37.464 37.464 0 002.126-.819c-.175.234-.35.454-.524.688-.291.41-.51.863-.758 1.287-.218.38-.466.731-.568 1.17-.014.102.088.19.175.132.743-.498 1.034-1.507 1.5-2.238.32-.498.67-.951 1.034-1.419.496-.22.976-.439 1.457-.673l-.524.79c-.583.863-1.37 1.784-1.617 2.823-.03.131.131.234.233.131.743-.745 1.267-1.799 1.85-2.676.335-.512.655-1.01.96-1.536.773-.439 1.501-.95 2.127-1.594-.393.673-.8 1.33-1.18 2.018-.553 1.01-1.63 2.063-1.529 3.306.015.117.146.131.19.029.466-1.155 1.238-2.106 1.82-3.203.32-.6.67-1.185 1.005-1.785.277-.497.495-1.053.918-1.433.16-.146 0-.35-.175-.322.787-1.418 1.005-3.086.918-4.753-.146-2.56-.554-5.06-.437-7.635 0-.03.014-.058.014-.102v-.015c1.806 1.112 3.729 2.004 5.68 2.852 0 .307-.014.63-.014.936-.058 1.463-.03 2.91.015 4.359.029.848.058 1.696.029 2.545-.03.907-.19 1.784-.233 2.676v.132c-1.486.263-2.433 1.828-2.768 3.335a768.545 768.545 0 01-10.05 6.128c-2.184 1.316-4.383 2.618-6.626 3.847a56.37 56.37 0 01-2.447 1.301c-.612.308-.962.498-1.457.644-1.427.439-2.884-.673-4.194-1.112a48.582 48.582 0 01-1.559-.54c-1.908-.659-3.801-1.346-5.71-2.02-4.762-1.696-9.51-3.407-14.288-5.074-1.63-.57-3.262-1.127-4.879-1.697-1.646-.585-3.219-1.477-4.996-1.536a4.935 4.935 0 00-1.602.22 16.24 16.24 0 011.5-1.331zM62.6 44.667c-.437.19-.888.395-1.325.57.175-1.403.466-2.764.83-4.153.073-.278-.35-.395-.422-.117-.32 1.126-.67 2.238-.903 3.393-.059.293-.16.775-.059 1.112-.305.131-.597.263-.902.41.16-.322.13-.659.145-1.04.015-.555.03-1.11.073-1.666.087-1.141.277-2.268.597-3.364.087-.264-.32-.38-.422-.117a14.492 14.492 0 00-.728 3.217 21.37 21.37 0 00-.117 1.668c-.015.482-.073.965.16 1.39 0 .014.015.014.03.028-1.938.936-3.788 2.092-5.652 3.174-.116.059-.233.132-.335.19.248-.921-.014-2.077.044-2.998.058-1.2.408-2.355.582-3.54.015-.102-.043-.16-.116-.204a394.755 394.755 0 004.165-2.53c-.262 1.17-.597 2.325-.742 3.524-.073.585-.073 1.156-.073 1.74 0 .513-.044 1.01.175 1.478a.124.124 0 00.218 0c.437-.921.117-2.15.218-3.145.132-1.243.423-2.471.656-3.685a.204.204 0 00-.03-.161c1.05-.644 2.113-1.302 3.161-1.946.088 1.068.35 2.121.714 3.13.117.308.262.644.423.98-.365.761-.554 1.829-.365 2.662zm-9.423 4.915c-.568.322-1.136.658-1.69.994 0-.248-.029-.497-.043-.746-.03-.658-.044-1.287.014-1.945.059-.658.102-1.33.16-1.989.059-.644.248-1.273.263-1.93v-.015c.655-.395 1.31-.776 1.966-1.17-.291 1.155-.685 2.267-.801 3.466-.088.98-.233 2.37.13 3.335zm-2.316.234c.015.35 0 .746.073 1.097-.146.088-.291.175-.437.278-.918.585-1.85 1.082-2.811 1.565.262-.995.16-2.15.247-3.16.102-1.199.32-2.384.467-3.583.422-.249.83-.483 1.252-.731-.291 1.082-.437 2.194-.524 3.32-.058.673-.35 2.15.262 2.618.087.058.218 0 .233-.102.16-.834-.014-1.785.044-2.633.073-1.17.19-2.34.466-3.481.335-.205.67-.395 1.005-.6.116-.073.233-.132.35-.205-.074.57-.277 1.112-.35 1.682-.088.658-.16 1.331-.233 1.99a9.66 9.66 0 00-.044 1.945zm-3.466 3.071l-.263.132c-.407.205-.815.424-1.209.658.117-.995.103-2.048.146-3.028.044-.745.19-1.491.233-2.237.03-.425 0-.834.058-1.244.525-.292 1.05-.6 1.573-.892-.189 1.053-.407 2.106-.538 3.174-.131 1.082-.32 2.37 0 3.437zm-2.069 1.126c-.306.176-.597.366-.888.556.218-1.024.116-2.164.218-3.188.102-1.156.32-2.326.394-3.481.276-.146.553-.307.83-.468l-.044.482c-.058.732-.204 1.463-.262 2.194-.058.732-.073 1.463-.131 2.194-.073.57-.146 1.156-.117 1.711zm-1.369.863c-.262.176-.524.337-.8.498-.161.102-.321.204-.481.292.043-.38.043-.76.072-1.111.059-.746.146-1.478.233-2.224.146-1.17.292-2.34.423-3.525.422-.219.83-.453 1.223-.672-.145 1.082-.378 2.164-.495 3.247-.073.643-.087 1.287-.117 1.93-.029.527-.087 1.053-.058 1.565zm-1.806 1.097c-.218.117-.437.234-.655.366-.16-.38-.248-.79-.379-1.17-.014-.044-.029-.073-.044-.117.248-.088.233-.307.263-.541.072-.658.174-1.302.262-1.946.145-1.067.437-2.12.597-3.188.277-.102.553-.22.816-.351a57.904 57.904 0 00-.496 3.188 36.872 36.872 0 00-.247 2.224c-.059.468-.146 1.023-.117 1.535zM40.912 54.6c-.175-.512-.364-1.039-.51-1.566.16-.614.175-1.316.263-1.945.058-.482.16-.965.218-1.448.291-.014.583-.073.874-.146-.204.775-.437 1.55-.568 2.355-.087.512-.146 1.038-.218 1.565-.03.278-.088.585-.088.877 0 .103.015.205.03.308zM6.015 39.066c.32-.176.48-.556.64-.849.132-.234.263-.482.408-.716.03.014.059.014.088.029.247.088.51.19.757.292l-.466.556c-.262.307-.553.585-.699.965-.03.074.073.147.131.103.35-.205.583-.556.83-.863.16-.205.32-.424.48-.644.248.103.51.22.758.337-.087.146-.19.278-.291.41-.175.219-.379.409-.539.628-.044.073.03.176.117.147.276-.103.466-.366.64-.586.117-.16.233-.321.335-.497.263.117.54.234.801.351-.058.073-.116.161-.189.234-.145.176-.32.351-.379.57-.029.088.073.161.16.118.22-.132.38-.366.54-.556.058-.073.116-.161.174-.234.088.03.175.073.262.102.219.073.423.161.641.234-.29.307-.582.717-.699 1.126-.014.074.073.147.131.103.379-.249.54-.702.86-1.024.029-.03.029-.044.043-.073.248.088.496.175.729.278-.073.146-.16.278-.248.41a3.632 3.632 0 01-.277.38c-.072.087-.19.175-.204.307-.014.073.015.131.088.16.291.103.539-.307.67-.511a8.5 8.5 0 00.32-.63c.262.103.54.206.801.293-.16.205-.364.395-.51.615-.101.16-.32.585-.043.702.233.102.335-.322.422-.468.146-.25.364-.44.524-.688.335.117.656.249.99.366a9.646 9.646 0 01-.363.439c-.19.219-.452.424-.48.73-.015.089.101.176.188.147.292-.102.481-.424.67-.658.132-.175.248-.336.365-.527.204.074.407.147.597.22-.131.175-.233.366-.35.556-.145.234-.379.468-.393.746 0 .087.087.16.175.131.276-.088.408-.395.539-.629.13-.22.247-.453.393-.672.379.146.772.277 1.15.424-.116.16-.218.307-.334.468-.146.19-.394.395-.437.643-.015.088.043.161.145.147.248-.044.394-.308.525-.512.145-.205.262-.425.407-.63.102.044.204.074.306.118-.13.234-.277.468-.408.702-.16.248-.393.497-.422.79-.014.087.102.16.175.131.291-.102.437-.41.582-.673.16-.263.306-.54.466-.819.292.103.598.22.889.322-.102.146-.19.307-.277.468-.145.278-.422.585-.48.907-.015.102.058.205.174.175.32-.073.466-.395.598-.672.116-.249.233-.512.378-.746.175.058.35.131.524.19-.305.541-.902 1.038-.699 1.696.03.088.146.117.204.059.306-.293.335-.79.554-1.155a3.82 3.82 0 00.262-.483c.35.132.7.248 1.049.38-.102.19-.292.336-.423.497-.19.234-.335.454-.291.761.03.19.335.22.422.059.131-.278.277-.483.466-.732.102-.131.19-.278.248-.424.218.073.437.16.64.234-.276.351-1.033 1.17-.582 1.39.262.117.393-.308.495-.454.16-.263.38-.497.525-.775.247.088.495.175.757.263-.218.22-.495.483-.51.79 0 .175.219.263.335.132.102-.117.175-.264.277-.38.102-.118.204-.235.306-.337a.199.199 0 00.044-.059c.204.074.422.147.626.22a3.035 3.035 0 00-.35.497c-.13.205-.276.483-.174.717.058.131.262.146.35.044.13-.147.16-.38.247-.541.087-.176.19-.351.32-.483.015-.015.03-.044.044-.059.218.073.422.147.64.234-.218.351-.582.615-.582 1.068 0 .249.379.307.437.059.102-.38.379-.615.568-.951 0-.015.015-.015.015-.03.262.088.51.176.772.279l-.015.014c-.19.263-.393.527-.553.82-.131.219.204.511.364.292.218-.278.393-.585.582-.878.015-.03.03-.058.03-.088l.611.22h-.014c-.219.205-.466.512-.54.819-.043.234.263.38.394.16.146-.233.233-.482.422-.687.044-.058.059-.117.044-.175.19.073.379.131.568.205h.015c-.19.321-.54.585-.598.965-.043.248.306.439.438.19.174-.322.393-.6.553-.921.015-.03.015-.059.03-.088.32.117.64.22.946.336a.242.242 0 00-.16.059c-.19.175-.38.38-.51.614-.117.19-.248.658.102.702.087.015.204 0 .233-.102.073-.161.058-.293.145-.454.088-.16.204-.322.335-.453.102-.117.059-.263-.043-.337.364.132.713.264 1.078.38-.117.162-.263.293-.35.469-.146.248-.19.585.146.702.16.058.305-.117.276-.278-.029-.102.03-.22.117-.366.073-.131.175-.248.233-.38.218.073.437.16.67.234-.277.249-.51.6-.554.936-.029.263.335.293.452.117.204-.292.277-.643.568-.863.015 0 .015-.015.015-.015.189.074.378.132.568.205-.219.293-.612.63-.51.995.058.205.393.278.495.058.044-.087.044-.117.087-.219.044-.088.088-.175.146-.249.087-.146.19-.278.262-.424.233.088.466.161.7.249.058.015.101.03.16.058a3.024 3.024 0 00-.277.527c-.073.175-.219.512.014.643.248.132.364-.204.423-.38a5.12 5.12 0 01.291-.643l1.049.35c.903.308 1.762.79 2.665 1.083-.364 1.214-.408 2.486-.16 3.759.175.863.422 1.682.655 2.53.117.41.233.849.408 1.258-2.636-1.316-5.462-2.165-8.273-3.028-3-.906-5.986-1.857-8.972-2.793-3-.936-5.986-1.93-8.928-3.042a46.119 46.119 0 01-4.53-1.975C8.2 45.472 6.714 45.062 5.665 44.2c-1.078-.892-.99-2.457-.655-3.7.19-.673.48-1.287.86-1.872.101-.161.232-.307.349-.454-.16.249-.32.498-.394.76 0 .103.102.176.19.133zM40.11 51.907a5.827 5.827 0 01-.116-1.14c.014-.366.058-.761.073-1.156.101.015.189.03.29.03.074 0 .132 0 .205.014-.131.497-.263.994-.35 1.506-.029.249-.073.483-.102.746zm36.98-11.598c-.189.102-.393.19-.597.278-.597.263-1.121.6-1.66.98-1.326.921-2.826 1.535-4.253 2.267-1.442.746-2.84 1.565-4.268 2.31-3.015 1.58-6.015 3.218-9.059 4.754a259.91 259.91 0 00-8.914 4.724c-1.587.892-3.233 1.682-4.792 2.618-.786.483-1.558.966-2.3 1.507-.38.278-.758.541-1.079.834a1.265 1.265 0 00-.203-.176c-4.21-2.545-9.06-3.876-13.692-5.382-4.864-1.58-9.773-3.072-14.666-4.578-3.059-.936-6.802-1.843-8.9-4.476-1.252-1.58-1.514-3.715-1.02-5.646a8.313 8.313 0 011.108-2.486c.83-.614 1.908-.775 2.971-.644a8.58 8.58 0 00-1.413 1.99c-.568 1.096-.874 2.354-.786 3.583.087 1.287.786 2.238 1.82 2.954 1.268.863 2.782 1.448 4.151 2.136 3 1.521 6.322 2.574 9.526 3.627 3.248 1.068 6.51 2.062 9.773 3.072 3.627 1.126 7.297 2.135 10.734 3.788a.742.742 0 00.525.058c.058 0 .13 0 .203-.014.437-.132.83-.366 1.21-.6.524-.322 1.106-.541 1.645-.848 1.224-.688 2.403-1.434 3.612-2.136 1.15-.673 2.433-1.111 3.569-1.843a145.922 145.922 0 013.219-1.974c1.194-.717 2.417-1.375 3.626-2.062 1.15-.673 2.302-1.375 3.51-1.931 1.107-.512 2.214-.995 3.321-1.507.335.059.728-.043.961-.35.044-.06.073-.103.117-.162a50.095 50.095 0 002.65-1.345c1.355-.731 2.608-1.624 3.904-2.428a99.786 99.786 0 013.423-2.004c.058.03.146.059.218.073.38.073.758.19 1.122.351.204.088.408.19.597.307.058.044.204.132.306.22-.102.088-.204.146-.219.16zm-11.695-6.567c0-.015-.015-.015-.015-.03-.029-.014-.058-.044-.087-.058-.03 0-.015.044.102.088z" fill="#FFF06A"/></g><defs><clipPath id="clip0_1_641"><path fill="#fff" d="M0 0h79v62H0z"/></clipPath></defs></svg>