<svg width="61" height="59" fill="none" xmlns="http://www.w3.org/2000/svg"><g clip-path="url(#clip0_1_633)"><path d="M58.748 30.038c-.585-.113-1.204-.056-1.801-.022-.687.033-1.385.1-2.05.304a4.77 4.77 0 00-1.53.765c.303-.844.585-1.711.844-2.578.18-.608.338-1.216.484-1.824 1.892-.034 3.592-.98 4.875-2.364.653-.698 2.364-2.759.766-3.4-1.115-.45-2.68.168-3.57.81a6.13 6.13 0 00-1.362 1.385 36.36 36.36 0 00.417-4.425c.675-.045 1.351-.675 1.846-1.07.63-.495 1.239-1.024 1.7-1.677.45-.63 1.6-2.747.237-3.107-.878-.226-1.96.529-2.556 1.092a6.47 6.47 0 00-1.272 1.655 28.983 28.983 0 00-.552-4.143l.057-.023.135-.068c1.373-.641 2.341-1.846 2.713-3.31.225-.9.45-1.891.462-2.826.01-.585-.192-1.26-.879-1.317-1.035-.079-1.925 1.239-2.341 2.038-.428.8-.699 1.678-.879 2.567-.01.034-.01.056-.022.09a25.842 25.842 0 00-1.407-3.479C52.048 3.062 50.495.957 48.344.033c-.135-.056-.236.113-.112.203.844.642 1.655 1.329 2.308 2.162.653.833 1.182 1.79 1.643 2.747a22.806 22.806 0 011.273 3.287 13.966 13.966 0 00-1.205-1.238c-1.227-1.103-2.77-1.903-4.447-1.959-.237-.011-.417.203-.428.428-.034.81.394 1.463.878 2.071.552.698 1.058 1.453 1.7 2.083.608.597 1.396.935 2.23 1.092.405.08.832.17 1.238.203.191.011.394.023.574-.034.023 0 .056-.034.101-.056l.135.675c.237 1.33.372 2.658.428 3.997a11.56 11.56 0 00-.833-1.193 8.711 8.711 0 00-1.779-1.745c-.36-.27-.765-.45-1.17-.653-.372-.191-.688-.45-1.104-.54-.282-.057-.507.123-.53.405-.168 1.767.485 3.693 1.532 5.1.473.63 1.08 1.148 1.835 1.419.687.247 1.351.146 2.027.078a38.532 38.532 0 01-.53 4.673 7.684 7.684 0 00-.529-1.475c-.72-1.509-1.88-2.837-3.411-3.547-.27-.123-.507-.01-.62.248-.416 1.002-.438 2.05-.292 3.108.09.608.214 1.204.44 1.767 0 .09.01.169.022.26.01.055.067.078.123.055.158.316.35.62.586.89a4.665 4.665 0 002.24 1.43c.18.056.485.168.789.236-.068.293-.147.574-.226.856a39.531 39.531 0 01-1.092 3.445 6.263 6.263 0 00-.247-1.385c-.586-1.79-2.117-3.085-3.265-4.503-.214-.27-.721-.124-.777.202-.192.991-.54 1.948-.608 2.961a6.568 6.568 0 00.36 2.601c.27.754.732 1.351 1.34 1.858.529.45 1.036.934 1.587 1.362 0 .124.057.236.158.35a33.384 33.384 0 01-1.937 3.512c.17-.912.214-1.847-.18-2.702-.416-.924-1.08-1.678-1.666-2.5-.315-.45-.63-.912-.9-1.385-.226-.405-.395-.799-.699-1.148-.225-.248-.698-.124-.765.203-.192.98-.44 1.914-.563 2.916-.124 1.013.034 2.071.281 3.062.203.822.54 1.61 1.047 2.286.26.337.54.608.9.833.237.135.474.27.721.394.113.056.237.101.36.146-.022.034-.056.08-.078.113a34.777 34.777 0 01-3.062 3.501c.202-.608.349-1.283.258-1.891-.123-.923-.517-1.802-.889-2.646-.203-.473-.45-.934-.653-1.407-.191-.462-.372-.901-.664-1.306-.158-.214-.462-.304-.676-.09-1.26 1.294-1.801 3.197-1.914 4.965-.067.912-.056 1.891.316 2.736.337.776 1.058 1.44 1.778 1.914a52.87 52.87 0 01-2.803 2.229c.135-.496.18-1.025.191-1.543.023-1.07-.214-2.038-.45-3.073-.113-.507-.203-1.014-.315-1.52-.113-.507-.36-.98-.383-1.498-.011-.225-.203-.484-.462-.461-.472.045-.822.281-1.16.619-.382.394-.787.788-1.148 1.193-.81.912-1.384 1.926-1.79 3.085-.371 1.07-.653 2.263-.495 3.4.146 1.059.777 1.937 1.576 2.613a.47.47 0 00.101.157 74.244 74.244 0 01-4.098 2.364 77.263 77.263 0 01-4.098-2.353.472.472 0 00.101-.157c.777-.653 1.408-1.509 1.565-2.533.18-1.16-.112-2.387-.484-3.48a9.093 9.093 0 00-1.722-3.006c-.372-.427-.777-.81-1.171-1.215-.35-.36-.698-.62-1.205-.665-.259-.022-.45.237-.462.462-.033.518-.27 1.002-.382 1.497-.113.507-.203 1.014-.316 1.52-.236 1.036-.484 1.993-.45 3.074.011.54.056 1.07.203 1.576a54.787 54.787 0 01-2.815-2.252c.71-.461 1.418-1.103 1.767-1.857.395-.867.406-1.87.338-2.804-.123-1.756-.653-3.67-1.914-4.965-.214-.214-.518-.135-.675.09-.304.405-.473.845-.665 1.306-.202.473-.45.935-.652 1.407-.18.428-.372.856-.54 1.307-.023.022-.035.045-.023.078-.147.417-.27.834-.327 1.273-.079.608.056 1.272.259 1.88a38.122 38.122 0 01-1.948-2.106 29.95 29.95 0 01-1.193-1.486l.27-.101c.248-.124.495-.259.732-.394a3.12 3.12 0 00.934-.822c.53-.687.89-1.509 1.092-2.342.237-.968.395-2.004.293-2.995-.112-1.024-.371-1.981-.563-2.983-.067-.327-.551-.45-.765-.203-.293.327-.462.698-.665 1.081a12.41 12.41 0 01-.878 1.373c-.596.845-1.295 1.633-1.722 2.59-.383.844-.35 1.756-.192 2.657 0 .023.011.045.011.068a32.396 32.396 0 01-1.947-3.513l.01-.011a.492.492 0 00.159-.35c.551-.427 1.058-.911 1.587-1.362.608-.518 1.07-1.103 1.34-1.857a6.566 6.566 0 00.36-2.601c-.067-1.013-.428-1.97-.608-2.961-.056-.327-.563-.473-.777-.203-1.148 1.419-2.69 2.713-3.265 4.504a5.42 5.42 0 00-.247 1.418 30.323 30.323 0 01-.597-1.79 50.113 50.113 0 01-.71-2.544c.282-.068.563-.17.732-.214.901-.27 1.678-.732 2.297-1.441.71-.811 1.002-1.847 1.16-2.894.157-1.08.146-2.162-.282-3.186-.112-.27-.349-.372-.619-.248-1.531.698-2.69 2.038-3.411 3.547a7.479 7.479 0 00-.53 1.452 38.173 38.173 0 01-.529-4.65c.676.079 1.34.17 2.027-.079.754-.27 1.362-.788 1.835-1.418 1.058-1.396 1.7-3.333 1.531-5.1-.022-.282-.247-.462-.529-.406-.416.09-.732.35-1.103.54-.406.203-.8.384-1.171.654a9.013 9.013 0 00-1.779 1.745c-.236.304-.552.732-.833 1.193.022-.664.067-1.328.146-1.993.09-.9.237-1.79.417-2.68.045.035.09.057.101.057.146.045.338.056.484.045.406-.011.833-.124 1.239-.191.867-.158 1.688-.496 2.319-1.115.62-.608 1.115-1.328 1.655-2.015.495-.63.957-1.306.934-2.14-.01-.225-.19-.427-.427-.427-1.69.067-3.22.855-4.448 1.959-.427.383-.833.8-1.204 1.238a26.2 26.2 0 01.946-2.59c.45-1.024.979-2.048 1.61-2.972.72-1.047 1.655-1.868 2.657-2.634.112-.09.022-.259-.113-.203-1.846.71-3.321 2.466-4.29 4.222a23.737 23.737 0 00-1.81 4.222c0-.022-.011-.045-.011-.067a9.12 9.12 0 00-.879-2.567c-.416-.788-1.306-2.117-2.341-2.038-.687.045-.89.732-.879 1.317.012.935.225 1.925.462 2.826.383 1.475 1.351 2.68 2.713 3.31.034.023.08.057.135.068.023.011.034.011.057.022a30.42 30.42 0 00-.552 4.155 6.147 6.147 0 00-1.283-1.667c-.597-.551-1.678-1.317-2.556-1.092-1.351.35-.214 2.477.236 3.108.473.653 1.081 1.182 1.7 1.677.507.406 1.182 1.036 1.858 1.081.045 1.475.191 2.95.417 4.425a5.844 5.844 0 00-1.352-1.385c-.889-.642-2.454-1.26-3.569-.81-1.61.641.113 2.713.766 3.4 1.284 1.373 2.984 2.33 4.875 2.364 0 .011.011.023.011.045.372 1.475.8 2.927 1.318 4.357a5.342 5.342 0 00-1.025-.574c-1.17-.484-2.612-.585-3.873-.518-.507.034-1.126.135-1.373.63-.27.53.056 1.059.394 1.464.889 1.036 2.037 1.948 3.32 2.443 1.307.507 2.703.45 3.987 0a34.05 34.05 0 002.094 3.76 6.213 6.213 0 00-1.79-.596c-1.498-.248-3.052.079-4.448.63-.461.18-.968.44-1.16.924-.225.54.046 1.114.473 1.475 1.07.912 2.894 1.058 4.223 1.103.923.034 1.823-.045 2.68-.405a9.337 9.337 0 001.61-.879 38.287 38.287 0 003.095 3.524 6.946 6.946 0 00-1.08-.044c-.834.044-1.644.247-2.421.54-.71.281-1.441.54-2.15.833-.519.203-1.307.552-1.42 1.17-.123.665.507 1.037 1.025 1.262 1.588.687 3.21 1.036 4.943.968 1.666-.067 2.927-.878 3.896-2.162a62.12 62.12 0 003.456 2.714h-.214c-.844.022-1.678.101-2.51.281a12.84 12.84 0 00-2.545.879c-.653.303-1.453.641-1.993 1.137-.45.405-.675 1.08-.225 1.576.416.473 1.137.529 1.722.585 1.734.17 3.468.687 5.225.372.878-.158 1.654-.574 2.319-1.16.461-.416.99-.968 1.328-1.553a62.08 62.08 0 003.828 2.263c-.98.506-1.981.979-2.983 1.44-1.318.597-2.68 1.081-3.963 1.734-.608.316-.18 1.261.461 1.093 1.25-.327 2.443-.879 3.626-1.408A77.468 77.468 0 0029.7 54.92c.27-.135.54-.27.799-.417a67.997 67.997 0 003.76 1.824c1.363.62 2.748 1.273 4.189 1.655.641.17 1.08-.776.461-1.092-1.103-.563-2.263-.98-3.4-1.486a73.342 73.342 0 01-3.423-1.632c-.033-.023-.078-.034-.112-.057a62.053 62.053 0 003.828-2.263c.281.473.687.912 1.036 1.284.54.551 1.182.99 1.914 1.26 1.767.631 3.67.057 5.449-.157.597-.067 1.25-.056 1.79-.349.552-.293.8-.912.484-1.475-.338-.574-1.058-.878-1.621-1.182a13.2 13.2 0 00-2.477-1.024 11.95 11.95 0 00-2.882-.473 10.147 10.147 0 00-.597-.023 57.033 57.033 0 003.456-2.702c.811 1.07 1.87 1.925 3.243 2.105 1.666.214 3.49-.022 5.033-.675.517-.214 1.26-.428 1.52-.99.303-.677-.327-1.183-.856-1.465-.653-.349-1.385-.529-2.06-.822-.777-.326-1.543-.607-2.387-.72a6.443 6.443 0 00-1.678-.022 34.154 34.154 0 003.063-3.524c1.07.731 2.296 1.227 3.591 1.272 1.452.056 3.243-.09 4.526-.822 1.08-.608 1.272-1.858.113-2.488-1.227-.665-2.871-1.002-4.245-.901-.856.068-1.655.315-2.42.687a35.375 35.375 0 002.105-3.772c1.092.383 2.252.484 3.4.191 1.43-.36 2.59-1.294 3.614-2.319.35-.349.777-.788.8-1.317.044-.552-.44-.878-.969-.99zm.574-16.325c-.01-.023.012-.045 0 0zm-3.096 2.927c.248-.506.53-1.002.89-1.43.518-.619 1.17-1.238 1.981-1.43a.694.694 0 01.203-.033c0 .01-.011.022-.011.033-.057.102-.057.316-.09.428-.18.62-.552 1.194-.991 1.666-.428.462-.935.879-1.441 1.25-.27.203-.63.36-.935.563v-.157c.146-.304.26-.608.394-.89zm-4.2-8.624c-.033.022-.056.045-.056.09-.022.518-.169 1.126-.146 1.678a4.964 4.964 0 01-.664-.293c.011-.315-.011-.63-.011-.923-.012-.44-.023-.879-.046-1.318.237.17.462.35.676.54.079.068.169.147.248.226zM49.9 8.33c-.147-.169-.293-.349-.44-.529.012-.236.012-.484.023-.72l.034-.687c.203.078.394.157.597.259-.045.326-.08.664-.113.99-.034.226-.079.45-.101.687zm-.665-2.038c-.033.26-.044.53-.067.788a2.964 2.964 0 00-.023.327c-.337-.405-.709-.822-.855-1.317.315.033.642.112.945.202zm1.014 2.421c.067-.315.045-.653.079-.968.033-.316.067-.63.078-.935.147.079.293.17.44.26-.045.495-.057.99-.068 1.485 0 .214-.011.428-.023.653a1.192 1.192 0 01-.123-.101 5.927 5.927 0 01-.383-.394zm3.479 1.396c-.192.056-.473-.011-.72-.067-.012-.046-.012-.09-.023-.136-.034-.304-.08-.608-.09-.912-.012-.157-.248-.157-.248 0a9.44 9.44 0 00.034.98 4.206 4.206 0 01-.518-.101c.09-.552.067-1.171.045-1.712.338.316.664.63.99.957.226.237.462.484.631.755.023.033.045.078.068.123 0 .012 0 .012.01.023a.453.453 0 01-.18.09zm1.993 14.062c.405-.619.923-1.204 1.53-1.643a3.88 3.88 0 011.656-.71c.214-.034.98-.203 1.137.023-.011-.023-.124.338-.169.428a5.774 5.774 0 01-.743 1.058c-.54.63-1.193 1.238-1.937 1.621-.698.36-1.452.597-2.229.63l.068-.326c.214-.383.461-.743.687-1.08zm-.36-15.447c.168-.642.37-1.283.641-1.903.18-.405.394-.81.664-1.16.18-.224.575-.731.879-.776.1-.011.056-.113.067.113.011.394-.045.776-.101 1.17-.09.653-.203 1.329-.428 1.948-.383 1.047-1.126 1.79-2.094 2.274-.023-.078-.034-.157-.056-.236.1-.473.315-.98.427-1.43zm-4.696 4.11c.124.056.237.112.35.169.056.394-.192 1.238-.237 1.44-.023.09-.056.203-.079.316-.27-.71-.416-1.441-.529-2.207.18.101.349.214.495.282zm.27 2.454c.18-.461.215-1.07.27-1.509.023-.157.068-.427.057-.664.113.068.225.124.338.203.101.067.203.146.293.214-.08.89-.563 1.767-.417 2.68a5.491 5.491 0 01-.54-.924zm.789 1.25c.202-.597.101-1.306.214-1.925.056-.304.123-.608.157-.912.237.191.45.394.664.608-.044.01-.09.045-.09.09-.022.608-.146 1.182-.27 1.778-.056.282-.135.586-.135.879a3.894 3.894 0 01-.54-.518zm1.767 1.024c.045-.281.057-.574.09-.867.046-.427.08-.844.068-1.283 0-.124-.18-.113-.18 0-.045.642-.327 1.407-.282 2.094-.033-.011-.067-.011-.112-.023a2.049 2.049 0 01-.484-.213c.135-.44.168-.957.247-1.408.08-.484.124-.957.034-1.452.079.09.169.18.248.27a9.252 9.252 0 011.148 1.576c.124.237.315.552.45.89v.315c-.427.068-.821.135-1.227.101zm-.641 4.324c0 .011-.012.011-.012.022a32.627 32.627 0 00-.36 1.509c-.09.394-.236.81-.27 1.216a3.397 3.397 0 01-.586-.405c.214-.496.304-1.115.473-1.61.147-.473.293-.946.327-1.442.124.17.236.35.337.53.034.056.057.123.09.18zm-2.624-2.759c.158.09.304.18.45.282-.01.011-.033.034-.033.056-.011.608-.26 1.216-.45 1.801 0-.022-.012-.056-.012-.078-.09-.676-.112-1.385.045-2.06zm.113 2.894c.067-.237.135-.462.191-.698.147-.586.428-1.182.304-1.79a6.6 6.6 0 011.351 1.34c-.112.63-.315 1.227-.529 1.835-.124.36-.315.788-.371 1.193a9.115 9.115 0 01-.316-.372c.068-.416.057-.866.18-1.272.17-.563.406-1.047.406-1.655 0-.191-.282-.191-.293 0-.067.71-.439 1.284-.563 1.97l-.067.36a6.613 6.613 0 01-.293-.911zm3.096 3.04c-.248-.068-.495-.135-.732-.214-.056-.023-.124-.045-.18-.068.203-.338.259-.765.338-1.148.09-.428.146-.867.225-1.295.191.405.338.822.44 1.261.123.552.123 1.013.044 1.509-.056-.023-.101-.034-.135-.045zM11.788 7.487c-.169.202-.327.405-.495.608.27-.383.146-1.126.056-1.655.439-.17.89-.293 1.362-.36-.146.54-.563.979-.923 1.407zm-1.565-.462a5.682 5.682 0 01-.27 1.149c-.124.405-.406.855-.394 1.283 0 .068.09.101.135.056.349-.326.473-.98.596-1.43.102-.394.17-.788.136-1.182a5.85 5.85 0 01.698-.36c0 .203 0 .394-.012.597-.01.383-.135.698-.214 1.058-.01.056.046.135.113.113a.75.75 0 00.225-.135c-.27.326-.552.653-.878.945-.473.428-1.047.676-1.666.81.281-.596.236-1.429.428-2.048.033-.023.056-.056.09-.079a8.085 8.085 0 011.013-.777zM7.746 9.198c.36-.383.743-.743 1.126-1.103-.09.304-.147.608-.203.923-.056.326-.157.63-.248.946-.022 0-.045.01-.067.01-.293.046-.81.215-1.092.136a.568.568 0 01-.147-.056c.18-.293.36-.574.631-.856zm-2.59 8.478c-.281-.18-.596-.327-.855-.507a12.703 12.703 0 01-1.464-1.238c-.473-.484-.867-1.081-1.047-1.734-.022-.068-.056-.326-.09-.44.056.012.124.012.191.023.777.192 1.419.777 1.926 1.363.371.439.653.912.912 1.418.157.304.27.642.427.957v.158zm-1.34 7.262c-.742-.394-1.395-.98-1.936-1.621a7.271 7.271 0 01-.698-.969 15.26 15.26 0 01-.214-.506c.17-.226.923-.057 1.137-.023a3.88 3.88 0 011.655.71c.586.416 1.081.979 1.487 1.564.236.35.506.732.731 1.126l.068.338c-.777-.011-1.531-.248-2.23-.62zm2.185-14.546c-.935-.462-1.644-1.16-2.05-2.173-.247-.62-.36-1.295-.45-1.948-.056-.383-.135-.777-.123-1.171 0-.034.01-.158.01-.225.012 0 .035.011.046.011.315.068.653.507.844.732.27.326.484.732.665 1.114.292.63.506 1.306.686 1.982.113.44.327.946.428 1.43-.011.09-.034.169-.056.248zm4.244 2.476c.17-.078.372-.213.586-.326-.191 1.329-.507 2.567-1.317 3.704a3.538 3.538 0 01-.27.338c.078-.53-.023-1.104-.057-1.621-.022-.473-.067-.935-.101-1.408.079-.056.157-.124.236-.18a5.64 5.64 0 01.923-.507zm-1.373.867c-.011.406-.011.822 0 1.228.011.608-.068 1.306.112 1.891a2.968 2.968 0 01-.776.53c.056-.474.022-.969.01-1.453 0-.518 0-1.047-.022-1.565a8.95 8.95 0 01.676-.63zm-.946.924c-.011.427-.011.855-.011 1.283 0 .507-.045 1.036.034 1.543h-.012a2.536 2.536 0 01-.574.09c0-.26-.011-.507 0-.755.011-.495.011-.98 0-1.475.169-.225.35-.45.54-.664l.023-.022zm-1.61 2.814v-.315c.113-.304.282-.585.405-.81a7.53 7.53 0 01.462-.755c-.034.405-.068.81-.09 1.216-.011.236-.045.484-.056.743a7.428 7.428 0 01-.72-.079zm4.492 3.727c-.101.664-.247 1.407-.574 2.015.045-.551-.101-1.126-.225-1.655-.124-.529-.27-1.058-.383-1.587a5.537 5.537 0 011.149-.833c.168.664.146 1.373.033 2.06zm-1.396-1.013c.057.394.135.776.214 1.16.147.72.192 1.497.394 2.206a3.9 3.9 0 01-.698.732c.079-.417-.067-.867-.169-1.284a11.605 11.605 0 01-.225-1.25c-.022-.247-.045-.574-.101-.889a6.46 6.46 0 01.585-.675zm-.8.957c.035.371.012.765.035 1.024.022.248.078.496.135.732.112.495.157 1.058.338 1.52-.203.146-.428.27-.653.36-.057-.495-.248-.968-.36-1.452a9.807 9.807 0 01-.192-.968c.101-.226.225-.45.349-.665.101-.18.214-.36.349-.551zm-1.147 2.533c.067-.315.168-.63.281-.935.022.158.056.316.09.473.113.53.203 1.149.484 1.622h-.01c-.237.078-.495.146-.732.213-.045.012-.09.023-.124.034a3.3 3.3 0 01.011-1.407zM5.2 33.438c-.698-.27-1.328-.698-1.891-1.182-.146-.124-1.216-.98-1.115-1.216.124-.293 1.408-.113 1.667-.101.653.022 1.306.067 1.925.247 1.024.282 1.813.912 2.522 1.644.09.225.191.45.293.676-1.104.349-2.218.383-3.4-.068zm5.844-1.903c-.011-.09-.011-.19-.023-.236l-.236-1.07c-.135-.641-.315-1.305-.372-1.97a7.18 7.18 0 01.496-.698c.034.507.146.99.281 1.486.18.642.27 1.306.45 1.948-.168.203-.382.372-.596.54zm1.362-5.618c.135.608.27 1.216.282 1.835a5.717 5.717 0 01-.507 2.523 2.868 2.868 0 01-.27.439c0-.473-.147-.935-.282-1.385-.191-.665-.405-1.317-.506-1.993.18-.214.371-.428.574-.642.045.845.281 1.757.563 2.5.034.101.169.079.18-.023.09-.9-.327-1.824-.518-2.724.169-.18.326-.36.484-.53zm-2.15 2.635c.079.856.315 2.668.596 3.152l-.168.136a3.026 3.026 0 00-.338.315c-.023-.44-.192-.912-.282-1.318l-.27-1.092c.068-.281.169-.563.281-.833a3.57 3.57 0 01.18-.36zm-.518 4.143c-.124-.754-.17-1.554-.068-2.32l.068.294c.146.574.191 1.182.326 1.756l-.101.101c-.079.057-.158.113-.225.17zm1.036 7.645c-.732.326-1.52.383-2.308.383a10.05 10.05 0 01-2.522-.338c-.282-.079-1.34-.35-1.216-.777.09-.315 1.024-.507 1.306-.597a7.84 7.84 0 012.443-.416 6.08 6.08 0 012.229.428c.44.168.844.416 1.261.63-.394.236-.777.495-1.193.687zm3.366-2.308c-.045-.315-.18-.63-.304-.912-.259-.608-.563-1.194-.732-1.835.079-.225.18-.45.315-.687.012-.023.034-.045.045-.068.203.608.428 1.205.608 1.813.136.45.214.968.473 1.374a1.867 1.867 0 01-.405.315zm-.18-4.222c.169.45.349.878.551 1.317.192.405.372.822.53 1.238.056.147.101.293.146.428a4.4 4.4 0 01-.417.665c-.292-1.081-.776-2.106-1.17-3.153.123-.157.236-.326.36-.495zm1.734-2.432c.022-.034.045-.079.067-.124.101.495.192.99.225 1.52a7.254 7.254 0 01-.168 2.15c0-.292-.192-.54-.327-.81-.236-.473-.44-.991-.63-1.486.01-.012.01-.023.022-.023.281-.405.563-.81.81-1.227zm-1.014 1.497c.293.777.608 1.543.98 2.286.022.045.067.045.101.022-.022.102-.056.214-.079.316-.078.27-.157.551-.27.81-.135-.349-.315-.687-.45-.98-.27-.574-.574-1.136-.845-1.722.18-.248.372-.484.563-.732zm-1.722 4.132c-.045-.473-.034-.9.034-1.306.067.35.191.676.337 1.002.135.304.282.608.383.935.056.18.09.36.135.54-.236.113-.473.214-.698.338a18.397 18.397 0 01-.191-1.509zm7.15 5.979c-.035.09-.08.169-.125.247-.191-.608-.63-1.216-.912-1.688a33.27 33.27 0 01-1.137-2.162c.124-.27.248-.53.383-.788.259.529.585 1.013.878 1.53.203.361.394.744.586 1.115.18.338.292.721.517 1.036a2.57 2.57 0 01-.19.71zm-.935-6.159c.788 1.092 1.047 2.533 1.137 3.85.011.237.034.485.034.744-.203-.45-.507-.89-.71-1.25-.36-.642-.822-1.239-1.17-1.88.236-.484.438-.991.709-1.464zM17.45 40.6a14.2 14.2 0 01.35-.912c.247.642.54 1.25.877 1.858.237.416.473.844.687 1.272.124.259.225.529.36.788-.18.214-.394.394-.619.574-.169-.608-.552-1.193-.844-1.723a29.461 29.461 0 01-.867-1.677.835.835 0 00.056-.18zm-1.058 6.586c-.676.394-1.374.473-2.14.473a9.372 9.372 0 01-2.375-.259 7.271 7.271 0 01-1.092-.349c-.079-.034-.507-.281-.755-.383.023-.022.057-.034.08-.056.146-.09.292-.169.45-.236.337-.147.686-.26 1.024-.383.687-.26 1.34-.575 2.05-.777a5.987 5.987 0 012.274-.225c.45.045.867.157 1.272.304.203.191.405.371.608.551-.394.54-.833 1.014-1.396 1.34zm2.049-2.488l-.507-.473c-.259-.439-.405-1.024-.506-1.407-.147-.563-.203-1.059-.113-1.588.158.35.326.698.507 1.036.36.676.641 1.453 1.058 2.105-.158.113-.304.214-.44.327zm7.205 4.943c-.349-.845-.968-1.588-1.497-2.309-.36-.495-.833-1.317-1.475-1.553.011-.248.034-.496.068-.72.033-.226.079-.462.123-.688.586.89 1.205 1.768 1.78 2.68.461.743.889 1.52 1.384 2.252-.124.124-.27.225-.383.338zm-1.97-8.433c.068-.192.124-.372.169-.552.214.18.405.462.552.62.371.405.72.799 1.035 1.238.608.855.969 1.801 1.228 2.815.045.157.078.326.123.495-.225-.394-.472-.766-.709-1.126-.619-.968-1.317-1.88-2.128-2.69-.135-.136-.337.067-.214.213.822.856 1.498 1.824 2.106 2.849.383.652.72 1.362 1.126 2.015.01.36-.023.71-.135 1.047-.045-.113-.124-.214-.18-.315-.26-.44-.518-.867-.8-1.284a38.816 38.816 0 00-1.08-1.52c-.248-.326-.496-.664-.778-.957-.27-.292-.653-.529-.709-.946 0-.033-.022-.044-.045-.067.056-.214.113-.428.158-.63.067-.417.146-.822.281-1.205zm-.563 2.206c.045.124.113.237.214.35.293.36.597.698.878 1.08.417.574.8 1.182 1.216 1.768.293.417.552.878.81 1.306.102.169.226.473.429.563a3.36 3.36 0 01-.327.495c-.45-.743-.934-1.475-1.407-2.195-.597-.912-1.227-1.87-1.993-2.657.056-.237.124-.473.18-.71zm-.067 8.659a3.753 3.753 0 01-2.128.945c-.878.09-1.768-.045-2.635-.157-.743-.102-1.475-.124-2.218-.18-.135-.012-.27-.023-.405-.057-.214-.056-.225-.011-.146-.135.135-.214.461-.315.664-.428.788-.439 1.576-.855 2.432-1.16.878-.303 1.756-.461 2.668-.596.62-.102 1.284-.192 1.925-.158.304.214.608.417.912.62-.36.416-.653.923-1.07 1.306zm.281-3.49a3.256 3.256 0 01-.45-.935c-.147-.496-.203-1.07-.203-1.621.563.382.957 1.227 1.306 1.745.248.36.518.698.743 1.07.203.348.372.731.574 1.069a74.647 74.647 0 01-1.97-1.329zm11.022-3.255c.057-.225.124-.439.192-.664.27-.18.484-.439.698-.675.315-.35.642-.676.98-1.002.28-.27.585-.54.866-.822.147-.135.26-.293.383-.417.056.18.101.36.146.552l.102.416c-.17.203-.405.383-.574.53-.293.259-.575.518-.867.777-.383.349-.766.697-1.137 1.058-.338.326-.732.642-.969 1.047.045-.282.113-.54.18-.8zm1.171-2.747c.327-.461.676-.867 1.059-1.272.157-.169.36-.462.585-.664.056.259.135.518.214.777l-.011.01c-.327.237-.597.586-.89.868-.428.405-.867.788-1.272 1.216a5.915 5.915 0 01-.383.371c.17-.45.406-.89.698-1.306zm-1.396 3.76c.023.023.068.034.113.012.507-.259.9-.766 1.295-1.16.439-.439.9-.855 1.362-1.283.259-.237.642-.518.9-.856l.203.777c-.022 0-.033.011-.045.034-.54.754-1.373 1.362-2.049 2.004-.371.349-.72.71-1.058 1.092-.237.259-.53.518-.743.81-.09-.461-.056-.956.022-1.43zm.158 2.016a1.936 1.936 0 01-.124-.326c.36-.124.608-.485.856-.755.383-.416.765-.844 1.182-1.238.63-.597 1.463-1.216 1.846-2.015.09.349.158.697.214 1.047.012.078.023.157.023.236-.045-.023-.113-.011-.124.045-.068.394-.563.743-.844.99-.282.248-.53.53-.811.778-.574.517-1.576 1.182-1.7 2.004a2.96 2.96 0 01-.518-.766zm2.533.8c-.405.28-.81.551-1.227.81-.09-.259-.338-.405-.563-.62l-.101-.1c.36-.417.63-.879 1.035-1.261.35-.327.732-.63 1.059-.98.394-.405 1.148-.912 1.294-1.509.057.676.023 1.419-.146 2.05a3.35 3.35 0 01-.45.979c-.304.214-.608.428-.9.63zm2.905 1.125c.912.147 1.801.293 2.668.597.833.293 1.588.676 2.353 1.115.214.123.608.259.743.484.09.135.08.045-.09.112-.135.068-.315.068-.461.08-.71.056-1.419.078-2.128.168-.9.124-1.813.259-2.714.169a3.68 3.68 0 01-2.127-.946c-.417-.383-.71-.89-1.07-1.328.304-.203.608-.417.912-.62.63-.022 1.295.068 1.914.17zm2.96-11.697c-.27.315-.64.574-.877.923-.383.563-.968 1.227-1.059 1.925-.01.079.102.112.158.067.63-.585.89-1.53 1.486-2.161.135-.147.304-.293.44-.462.078.17.157.327.236.496-.484.472-.867 1.024-1.25 1.587-.326.495-.743.99-1.07 1.52-.123-.585-.09-1.216-.045-1.801.023-.338.057-.676.102-1.014.214-.349.439-.664.731-.968.26-.259.586-.518.8-.844.079.18.169.36.259.54.022.068.056.124.09.191zm-.855-1.757c.124.225.237.462.35.71-.293.438-.71.765-1.082 1.148-.045.056-.1.112-.157.169.191-.72.461-1.43.89-2.027zm-.957 6.114c.462-.417.8-1.081 1.104-1.565.382-.597.754-1.194 1.193-1.745.135.315.259.641.372.968a3.7 3.7 0 01.078.281c-.281.462-.72.81-1.024 1.261-.372.552-.81 1.07-1.137 1.655-.237-.236-.45-.506-.575-.81 0-.012 0-.023-.01-.045zm1.69 1.745c-.305-.237-.643-.473-.947-.743.608-.383.946-1.014 1.329-1.6.225-.348.552-.663.777-1.012.056.45.011.9-.113 1.396-.101.416-.247 1.024-.518 1.486-.18.157-.349.315-.529.473zm4.818.54c.71.203 1.362.53 2.049.777.315.113.63.214.934.338.158.067.316.146.473.225.057.034.102.067.158.101a9.924 9.924 0 00-.653.338 7.177 7.177 0 01-1.205.394c-.777.191-1.576.259-2.375.259-.732-.011-1.43-.068-2.072-.439-.586-.327-1.047-.81-1.441-1.351.214-.192.428-.394.642-.586a5.35 5.35 0 011.092-.27c.8-.101 1.621-.011 2.398.214zm-.98-7.554c-.033-.034-.067-.08-.101-.113a4.565 4.565 0 01-.495-.777.062.062 0 00.056-.034c.338-.439.394-1.013.574-1.53.169-.485.45-.902.63-1.386.18.237.35.484.507.743-.157.608-.473 1.16-.698 1.745-.18.44-.326.901-.473 1.352zm-.281-5.078c.022.034.045.056.067.09-.022.011-.033.034-.045.056-.225.63-.506 1.239-.776 1.847-.057.123-.113.259-.18.394a10.826 10.826 0 01-.147-.845c.079-.236.135-.484.203-.642.18-.416.506-.821.608-1.26.101.123.191.247.27.36zm-.867-1.34c.022.045.045.079.067.113.113.202.237.394.36.585-.09.45-.46.89-.675 1.306 0-.158 0-.326.023-.484.033-.53.124-1.025.225-1.52zm.112 4.39l.136-.404c.123-.338.27-.653.405-.98.191-.45.349-.9.416-1.385.18.248.372.484.563.732-.214.53-.608.968-.799 1.509-.169.473-.326.98-.371 1.486a6.114 6.114 0 01-.35-.957zm2.68 1.363c-.045.496-.09 1.014-.203 1.509-.416-.225-.867-.372-1.25-.664.226-.394.372-.822.53-1.261.191-.563.462-1.104.62-1.667.326.665.37 1.295.303 2.083zm2.184 2.038a6.18 6.18 0 012.207-.45c.867-.011 1.711.146 2.544.416.293.09 1.194.27 1.306.597.147.428-.945.71-1.215.777a9.732 9.732 0 01-2.421.338c-.788.01-1.576-.034-2.32-.327-.461-.191-.866-.473-1.283-.743.394-.214.777-.45 1.182-.608zm.98-9.356a13.55 13.55 0 00-.9 2.128c-.282-.225-.564-.44-.823-.676.135-.349.248-.709.372-1.058.225-.608.473-1.205.743-1.79.124.203.236.405.338.62.112.247.202.506.27.776zm-2.612-3.772c.214.225.428.45.641.687-.382.54-.574 1.205-.754 1.835-.034.113-.067.226-.101.327a7.647 7.647 0 01-.068-1.013c.012-.62.147-1.228.282-1.836zm.315 4.515c.191-.259.27-.608.338-.9.18-.699.563-1.318.72-2.027.034-.158-.202-.237-.247-.068-.18.642-.563 1.194-.766 1.824a19.92 19.92 0 00-.225.777 3.656 3.656 0 01-.169-.495c.09-.26.146-.53.214-.743.203-.676.405-1.34.653-2.005.36.395.72.811 1.013 1.239a.18.18 0 00-.034.045c-.439.833-.98 1.79-1.204 2.758a2.058 2.058 0 01-.293-.405zm2.353 2.263c-.067-.056-.146-.101-.225-.18-.18-.158-.35-.338-.518-.507.35-.529.608-1.148.8-1.779.123.811.078 1.667-.057 2.466zm6.429-.439c-.54.462-1.148.878-1.813 1.148-1.205.496-2.353.462-3.49.09.101-.225.203-.45.293-.675.698-.71 1.452-1.329 2.454-1.621.653-.192 1.329-.248 2.004-.27.282-.012 1.52-.192 1.666.1.113.226-.979 1.116-1.114 1.228z" fill="#FFF06A"/></g><defs><clipPath id="clip0_1_633"><path fill="#fff" d="M0 0h61v58.016H0z"/></clipPath></defs></svg>