<svg width="58" height="59" fill="none" xmlns="http://www.w3.org/2000/svg"><g clip-path="url(#clip0_1_637)"><path d="M10.038 24.944c-.043.794-.359 1.502-.555 2.253-.174.643-.468 1.437-.403 2.102.011.108.163.185.229.065.348-.686.38-1.513.588-2.243.207-.718.413-1.426.424-2.177 0-.185-.272-.185-.283 0zm6.979 5.552c-.055 1.165-.425 2.308-.588 3.462-.152 1.045-.305 2.123-.381 3.18-.011.108.174.163.218.054.457-.98.424-2.134.555-3.19.152-1.165.457-2.33.457-3.517 0-.152-.261-.152-.261.011zm4.366 4.137c-.044.838-.273 1.688-.414 2.526-.13.784-.261 1.568-.338 2.363-.065.805-.141 1.6-.207 2.406-.065.794-.195 1.655-.01 2.427.021.11.196.11.217 0 .186-.75.153-1.567.218-2.33l.196-2.514c.054-.806.196-1.6.294-2.406.109-.817.283-1.644.283-2.472 0-.141-.229-.141-.24 0zm8.796 9.113c-.12.73-.098 1.47-.152 2.199-.065.751-.174 1.502-.25 2.254a55.136 55.136 0 00-.207 2.308c-.055.73-.153 1.502.021 2.232.022.098.175.098.197 0 .163-.665.141-1.361.184-2.036.044-.773.11-1.546.186-2.308.076-.719.141-1.438.206-2.156.077-.806.011-1.611.131-2.428 0-.174-.283-.261-.316-.065zm2.385.25a27.475 27.475 0 01-.218 2.994c-.13 1.002-.425 1.992-.512 2.994-.01.12.185.174.24.065.413-.882.533-1.905.653-2.852.13-1.056.174-2.123.163-3.19-.022-.207-.326-.207-.326-.01zm2.71-.326c0-.207-.326-.207-.326 0l-.033 2.71c-.01.806-.087 1.644.12 2.428.022.077.142.077.163 0 .196-.784.12-1.633.12-2.428-.022-.903-.032-1.807-.043-2.71zm2.603-1.634c-.011.882-.098 1.764-.196 2.646-.077.74-.305 1.677-.077 2.395.033.11.196.11.23 0 .239-.73.162-1.633.239-2.395.076-.882.152-1.764.152-2.646 0-.217-.348-.217-.348 0zm1.927-.762c-.055.828-.207 1.633-.338 2.45-.098.62-.337 1.448-.109 2.047.044.12.196.12.25 0 .131-.338.11-.708.142-1.067.033-.381.076-.751.13-1.132.088-.763.186-1.525.153-2.298-.032-.13-.228-.13-.228 0zm2.199-.326c-.022.751-.12 1.48-.218 2.232-.076.61-.283 1.393-.033 1.97.033.076.175.076.207 0 .262-.566.185-1.36.25-1.97.077-.74.153-1.481.153-2.232.011-.229-.348-.229-.36 0zM27.74 2.19l-.011.01-.022.022.033-.032zm25.17 27.86c-1.186-3.44-2.427-6.914-4.605-9.864a19.029 19.029 0 001.764-.882c3.647-2.09 7.251-5.814 7.011-10.332-.228-4.333-3.94-8.024-8.11-8.797-4.638-.87-9.146 1.764-12.455 4.758-.283.25-.555.512-.828.773-1.143-1.056-2.417-1.949-3.756-2.722a22.21 22.21 0 00-2.275-1.143c-.566-.24-1.198-.49-1.83-.5-.021-.011-.043-.033-.065-.044a.47.47 0 00-.315-.055h.01-.096a.501.501 0 00-.175.077.632.632 0 00-.108.043c-.186.098-.338.229-.501.349-.654.5-1.296 1.012-1.938 1.524a665.285 665.285 0 00-6.347 5.128 5028.433 5028.433 0 00-14.644 12.03c-.838.686-1.676 1.372-2.47 2.101-.219.196-.545.468-.676.62-.087.11-.152.164-.196.23-.01.01-.01.021-.01.032-.012.01-.023.033-.044.043a.175.175 0 00-.055.12c-.163.011-.261.229-.141.37.337.392.838.6 1.306.795.664.283 1.22.588 1.753 1.089 1.002.947 2.167 1.73 3.212 2.646a48.994 48.994 0 015.705 5.933c3.418 4.202 6.51 8.731 8.71 13.707 1.36 3.08 2.231 6.369 3.19 9.58.13.436.805.72 1.131.294.806-1.034 2.178-1.578 3.267-2.264l1.633-1.045c2.025-1.307 4.06-2.591 6.086-3.898 4.812-3.092 9.635-6.184 14.36-9.406a75.361 75.361 0 002.438-1.71c.37-.272.991-.62 1.144-1.1a.6.6 0 00.021-.271c.828-.665.272-2.46.087-3.3-.37-1.643-.631-3.309-1.186-4.91zm-6.497-10.54l-.261-.13a13.903 13.903 0 01-1.241-.697 19.58 19.58 0 00-2.994-1.568 32.416 32.416 0 00-3.18-1.132c-.467-.142-1.153-.447-1.709-.382.283-.348.577-.696.871-1.034 2.08.316 4.018.958 6 1.633.543.185 1.055.458 1.578.686.468.196.958.294 1.426.48.512.206 1.023.424 1.524.652.207.099.414.207.62.316-.848.48-1.73.86-2.634 1.176zm-3.353.784c-.142-.534-.74-.926-1.165-1.23a6.732 6.732 0 00-1.83-.926c-1.327-.446-2.666-1.012-4.07-1.143.271-.381.554-.762.837-1.132.36-.066.806.174 1.11.272.436.13.861.272 1.286.425 1.023.359 2.046.707 3.026 1.186 1.209.588 2.385 1.285 3.538 1.993-.903.283-1.818.511-2.754.696.022-.065.033-.108.022-.141zm-6.979 1.85c.458.023.904.186 1.35.251.055.011.11.011.163.022-.26.087-.533.152-.729.229-.24.076-.435.152-.642.239 0 0 0-.01-.011-.01-.48-.545-1.34-.85-2.036-.97-.446-.076-.947-.174-1.404-.087.304-.468.61-.925.914-1.393.719-1.078 1.415-2.178 2.167-3.245 1.284.294 2.493.784 3.734 1.23.631.229 1.208.48 1.775.85.304.207.598.413.86.664.185.174.326.38.522.533-2.188.392-4.442.512-6.674.49-.75.011-.75 1.165.011 1.198zm-4.148-5.66c.142.533.283 1.077.392 1.622.098.522.098 1.045.305 1.546.033.087.109.12.185.108-1.165 1.775-2.297 3.56-3.299 5.433a40.43 40.43 0 00-.61 1.187c-.326-1.633-.37-3.299-.337-4.965.022-1.012.044-2.068.272-3.059.022-.109.055-.218.076-.316.022-.076.044-.141.066-.218.01-.01.01-.01.01-.021.262.087.49.435.61.653.25.446.85.196.893-.24.142-1.393.425-2.721.86-3.995.033.207.076.414.12.61.152.566.316 1.11.457 1.654zm-.413-2.7c.152-.425.326-.839.511-1.253.13.85.414 1.688.599 2.515.142.62.25 1.241.403 1.862.141.566.25 1.23.512 1.753-.066.109-.142.207-.207.316-.131.195-.262.391-.381.577-.142-.48-.164-.97-.273-1.46a30.012 30.012 0 00-.424-1.709c-.25-.838-.457-1.752-.74-2.602zm.468 9.264c.588.066 1.154.196 1.73.338.251.065.545.152.828.196-.479.228-.947.479-1.426.718a54.573 54.573 0 00-2.82 1.557c.534-.936 1.1-1.883 1.688-2.809zm1.546-.043a5.779 5.779 0 00-1.427-.153c.164-.26.327-.511.49-.762.523-.141 1.176.044 1.688.174.588.153 1.067.545 1.622.74-.054.023-.109.044-.163.066-.207.076-.403.163-.6.25-.5-.174-1.099-.206-1.61-.315zm16.81-5.411c-.262.163-.512.327-.785.479-.185-.174-.435-.272-.675-.381-.522-.229-1.056-.436-1.578-.675-.48-.218-.98-.305-1.47-.49-.555-.207-1.089-.48-1.644-.686-1.045-.381-2.134-.697-3.2-1.012-.915-.273-1.917-.534-2.886-.501 1.013-1.089 2.123-2.058 3.245-3.016.01.01.021.022.032.022.49.12.98-.044 1.47-.044.566-.01 1.132 0 1.698.011 1.22.022 2.428.163 3.637.185.577.011 1.165-.022 1.73.044.654.065 1.296.24 1.939.37.566.109 1.132.196 1.687.316.49.098 1.024.228 1.524.217-.947 2.113-2.798 3.92-4.725 5.16zm4.953-5.596c-1.121-.185-2.254-.338-3.375-.555-1.187-.24-2.286-.392-3.495-.392-1.187 0-2.362-.12-3.549-.142-.566-.01-1.121.022-1.688.033-.566.022-1.1.185-1.654.24.337-.284.664-.567 1.001-.85.349-.087.882-.033 1.187-.065.555-.055 1.11-.055 1.677-.076 1.208-.033 2.406-.022 3.614-.022 1.121.01 2.275-.055 3.375.152.577.11 1.132.262 1.71.36.5.087 1.023.25 1.535.304a11.24 11.24 0 01-.338 1.013zM47.098 1.112c3.887-.022 7.708 2.852 8.568 6.684.218.948.218 1.873.044 2.755-.49-.207-1.089-.25-1.6-.338-.632-.108-1.253-.294-1.884-.38-1.165-.175-2.363-.099-3.528-.088-1.295.011-2.59.055-3.886.12-.577.033-1.154.12-1.731.174-.077.011-.164.011-.25.022a.615.615 0 00.086-.076c.294-.25.577-.512.871-.773.784-.12 1.612-.022 2.406-.022.991-.01 1.982-.109 2.973-.12 1.045-.01 2.1.011 3.146.011.446 0 .882.065 1.328.109.512.054 1.089-.044 1.546.229.229.141.447-.229.218-.36-.327-.196-.664-.228-1.034-.24-.49-.01-.97-.086-1.448-.119-1.165-.098-2.363-.01-3.539-.01-1.1.01-2.188.13-3.288.163-.675.021-1.339 0-1.992.087.544-.469 1.11-.915 1.753-1.263.773-.425 1.775-.697 2.362-1.394.48-.555-.337-1.372-.816-.816a2.372 2.372 0 01-.686.533c.076-.686.065-1.415.087-2.058.022-.936-.065-1.872-.12-2.808.13-.011.273-.022.414-.022zm-.74.032c-.011.926.021 1.862-.011 2.788-.022.74-.185 1.556-.185 2.33-.283.12-.566.239-.817.37.076-.784-.087-1.666-.141-2.406-.077-.959-.175-1.917-.218-2.886.446-.087.904-.152 1.372-.196zm-1.666.262a30.42 30.42 0 00.087 2.82c.033.479.065.958.087 1.437.022.392.011.805.076 1.197a7.875 7.875 0 00-.925.653c.033-.348-.033-.718-.065-1.045-.044-.49-.11-.969-.185-1.459-.153-1.067-.327-2.134-.403-3.2.435-.153.87-.294 1.328-.403zm-1.557.479c-.022 1.001.087 1.981.218 2.972.065.533.141 1.067.196 1.611.043.425 0 .904.13 1.318-.337.283-.675.577-1.001.87-.893.795-1.807 1.557-2.711 2.341.065-.49-.065-1.067-.13-1.513-.099-.73-.197-1.47-.306-2.2a11.996 11.996 0 00-.533-2.133c-.087-.25-.109-.534-.207-.773 1.34-1.023 2.787-1.905 4.344-2.493zm-4.605 2.7c.01.12.01.228.032.348.033.24.12.468.186.708.196.686.315 1.404.402 2.112.087.631.175 1.263.262 1.905.065.534.022 1.154.206 1.666-.195.174-.402.348-.598.533-.044-.402-.174-.827-.25-1.208-.131-.62-.295-1.23-.447-1.84-.152-.588-.261-1.198-.425-1.775-.141-.5-.348-.99-.479-1.502.36-.338.73-.653 1.11-.947zm-1.35 1.143c.032.403.196.806.305 1.187.174.62.294 1.252.435 1.872.142.588.283 1.165.414 1.742.109.523.163 1.11.337 1.622a21.72 21.72 0 00-.87.85c-.077-.262-.175-.523-.208-.752-.12-.686-.206-1.372-.37-2.046a22.94 22.94 0 00-.598-2.036c-.142-.436-.403-.937-.534-1.416.349-.337.708-.686 1.089-1.023zM35.873 6.98c.066.305.186.61.273.904.228.707.435 1.415.631 2.133.185.708.305 1.427.414 2.145.043.305.13.588.217.893l.066.294c-1.415 1.502-2.548 3.223-3.68 4.943-.022-.414-.185-.817-.283-1.209-.163-.61-.283-1.22-.425-1.84-.25-1.088-.61-2.123-.805-3.211.882-1.83 2.1-3.517 3.592-5.052zM27.61 2.244c-.098.044-.218.033-.381-.054a.494.494 0 00.381.054zM2.95 24.508a3.542 3.542 0 00-.663-.36c-.523-.217-1.154-.228-1.677-.424.01 0 .01 0 .022-.01.022-.011.032-.011.043-.022a.52.52 0 00.12-.055c.174-.076.414-.24.642-.392.697-.479 1.372-1.001 2.036-1.513 0 0 .011 0 .011-.01-.076.489-.207.968-.316 1.447-.087.425-.228.904-.217 1.34zm50.125 12.923c-.01.055-.01.11-.022.163 0 .011-.01.022-.01.033a.483.483 0 00-.011.327.956.956 0 00-.098.12c-.066.054-.12.108-.186.163-.076.065-.163.13-.24.196a1.211 1.211 0 01-.053.043 3.812 3.812 0 01-.218.164c-.37.283-.752.544-1.133.816.153-.337.25-.73.338-1.056.152-.588.25-1.197.24-1.807 0-.153-.23-.153-.23 0-.043.61-.195 1.208-.38 1.796-.153.468-.425.947-.48 1.437l-.424.294c-.577.392-1.143.784-1.72 1.165.087-.348.065-.74.098-1.088.065-.85.283-1.644.272-2.515 0-.218-.326-.218-.337 0-.033.816-.262 1.567-.381 2.362-.033.272-.011.555-.055.828-.043.26-.12.522-.163.783-.62.414-1.241.828-1.85 1.23 0-.01.01-.01.01-.021.261-.588.24-1.34.36-1.97.13-.665.239-1.34.239-2.015 0-.228-.349-.228-.349 0-.032.751-.206 1.47-.37 2.2-.12.533-.337 1.23-.13 1.763.021.066.108.109.174.098-.556.37-1.122.74-1.677 1.1 0 0 0-.011.011-.011.174-.523.087-1.132.109-1.677.032-.642.098-1.284.272-1.905.055-.207-.261-.294-.327-.087a8.383 8.383 0 00-.304 1.796c-.044.599-.142 1.285.043 1.862a.113.113 0 00.109.076c-.163.109-.327.218-.5.327-4.606 3.005-9.211 6.02-13.882 8.905-.664.414-1.339.828-2.014 1.23-.348.208-.719.404-1.089.6.153-.893.11-1.84.196-2.733.098-1.078.272-2.134.403-3.201.261-2.069.708-4.126.708-6.217 0-.185-.294-.185-.294 0-.044 2.112-.523 4.203-.817 6.293-.141 1.002-.305 2.003-.403 3.016-.098.958-.26 2.036-.076 2.994-.5.272-1.001.555-1.459.904-.163-.6-.337-1.187-.511-1.786.13-1.023.141-2.058.25-3.081.142-1.274.316-2.548.48-3.821.337-2.515.641-5.02.587-7.556 0-.13-.196-.13-.196 0-.065 2.547-.425 5.084-.784 7.61a128.132 128.132 0 00-.457 3.462c-.087.74-.196 1.503-.24 2.265a54.84 54.84 0 00-1.546-4.377c.153-.686.175-1.415.218-2.08.066-1.023.12-2.057.24-3.08.261-2.123.207-4.3.838-6.37.054-.184-.229-.272-.294-.076-.675 2.014-.697 4.094-.98 6.173-.13.98-.196 1.96-.272 2.95-.033.502-.098 1.013-.163 1.525a50.112 50.112 0 00-3.593-6.804c-.229-.37-.468-.74-.719-1.1.512-1.165.512-2.504.719-3.734.24-1.416.283-2.886.686-4.268.043-.152-.185-.218-.24-.065-.457 1.339-.522 2.765-.816 4.148-.153.707-.207 1.437-.327 2.144-.076.469-.185.937-.283 1.394-1.067-1.59-2.22-3.125-3.408-4.627.436-.98.501-2.123.697-3.168.174-.991.163-2.047.555-2.983.044-.11-.141-.196-.196-.087-.457.903-.5 1.916-.707 2.885-.207 1.012-.436 2.057-.555 3.092-.088-.11-.175-.23-.273-.338-.392-.49-.794-.969-1.197-1.437.38-.817.392-1.764.544-2.635.153-.914.24-1.872.457-2.776.044-.185-.24-.261-.283-.076-.25.882-.392 1.84-.555 2.743a32.002 32.002 0 00-.37 2.494 59.85 59.85 0 00-1.372-1.525.111.111 0 00.055-.065c.26-.795.26-1.698.402-2.526.153-.838.338-1.665.61-2.471.065-.185-.229-.261-.294-.076a16.98 16.98 0 00-.74 2.645c-.142.73-.316 1.546-.229 2.297a46.004 46.004 0 00-2.874-2.765c-.13-.109-.261-.218-.392-.338.13-.468.153-.99.25-1.437.24-1.023.425-2.057.86-3.026.066-.142-.141-.261-.206-.12-.664 1.296-1.024 2.82-1.274 4.279a45.998 45.998 0 00-1.209-.947.082.082 0 00.077-.055c.152-.337.152-.718.24-1.089.108-.446.25-.87.38-1.306.229-.762.414-1.535.36-2.34-.011-.131-.207-.131-.196 0 .01.881-.273 1.687-.545 2.514-.207.62-.61 1.513-.446 2.178-.447-.338-.904-.675-1.35-1.013.326-.664.424-1.513.653-2.188.261-.74.599-1.437.523-2.243-.022-.174-.294-.185-.283 0 .043.838-.381 1.535-.643 2.297-.13.381-.228.762-.348 1.143-.076.24-.174.49-.229.74-.261-.206-.522-.413-.784-.609.153-.577.164-1.23.294-1.818.087-.447.164-.893.196-1.35 2.069-1.633 4.137-3.332 6.206-5.008 4.78-3.898 9.559-7.806 14.36-11.671a218.87 218.87 0 012.482-1.97c.153-.12.381-.284.643-.49a4.17 4.17 0 00.25-.208l.01-.01h.012c.01-.011.022-.011.022-.022.032-.033.01-.011-.011.01a.62.62 0 00.152-.14c.425.25.893.456 1.328.674.708.36 1.394.762 2.058 1.187 1.241.795 2.45 1.676 3.516 2.7-1.219 1.306-2.308 2.732-3.146 4.311-1.045 1.949-1.677 4.05-1.981 6.217-.349-.24-.752-.349-1.133-.12-.315.196-.38.577-.446.914a13.55 13.55 0 00-.24 1.753c-.184 2.483-.141 5.074.686 7.436a29.97 29.97 0 00-.696 1.611c-.48 1.187-.806 2.428-1.274 3.615-.109.294.305.414.468.196.664-.915.969-1.982 1.426-3.005.229-.512.457-1.012.708-1.502a.593.593 0 00.49-.403c-.087.25-.109.174.076.022-.033.032.218-.164.294-.207.392-.262.784-.501 1.187-.74a67.113 67.113 0 013.005-1.644c.707-.36 1.404-.697 2.1-.97 1.002-.391 2.516-.642 3.104-1.633a.566.566 0 00.076-.348c2.613-.13 5.193-.555 7.632-1.448 2.144 2.798 3.244 6.14 4.42 9.428.316.893.577 1.819.773 2.744.141.686.218 1.382.392 2.068.13.523.25 1.056.316 1.59.032.25.054.523.054.773 0 .01-.011.142-.011.163z" fill="#FFF06A"/></g><defs><clipPath id="clip0_1_637"><path fill="#fff" d="M0 0h57.092v58.17H0z"/></clipPath></defs></svg>