<svg width="25" height="28" fill="none" xmlns="http://www.w3.org/2000/svg"><circle cx="10.958" cy="16.219" r="10.958" fill="#612B1C"/><circle cx="10.958" cy="16.219" r="10.958" fill="url(#paint0_linear_1_624)"/><path d="M24.992 1.092a508.243 508.243 0 00-2.984 2.95c-1.326 1.35-2.115 2.435-2.366 3.259-.138.434-.286 1.292-.447 2.572-.343 2.676-1.177 4.014-2.503 4.014-1.35 0-2.024-.698-2.024-2.093 0-1.623 1.143-3.647 3.43-6.071C21.299 2.315 23.392.612 24.375.612c.435 0 .64.16.617.48zm-7.923 0c-.686.64-1.68 1.6-2.984 2.881-1.281 1.28-2.07 2.39-2.367 3.328-.16.526-.32 1.395-.48 2.607-.343 2.652-1.167 3.979-2.47 3.979-1.418 0-2.127-.698-2.127-2.093 0-1.6 1.155-3.624 3.465-6.071C13.307 2.315 15.388.612 16.349.612c.457 0 .697.16.72.48z" fill="#612B1C"/><defs><linearGradient id="paint0_linear_1_624" x1="21.546" y1="9.948" x2="4.115" y2="22.951" gradientUnits="userSpaceOnUse"><stop stop-color="#FFC500"/><stop offset="1" stop-color="#FF9346"/></linearGradient></defs></svg>