<svg width="41" height="28" fill="none" xmlns="http://www.w3.org/2000/svg"><path d="M40.144 4.324a4.997 4.997 0 00-1.316-2.201A5.166 5.166 0 0036.576.837C33.38 0 20.518 0 20.518 0S7.69-.017 4.461.837a5.167 5.167 0 00-2.253 1.286 4.997 4.997 0 00-1.316 2.2A51.023 51.023 0 000 14.018c-.01 3.24.289 6.473.892 9.658.238.832.691 1.59 1.316 2.2a5.16 5.16 0 002.253 1.287C7.653 28 20.518 28 20.518 28s12.828 0 16.058-.838a5.165 5.165 0 002.252-1.286 4.997 4.997 0 001.316-2.201c.59-3.186.877-6.42.855-9.658a51.018 51.018 0 00-.855-9.693zm-23.73 15.69V8.002l10.704 6.015-10.705 5.997z" fill="#fff"/></svg>